<svg width="273" height="169" viewBox="0 0 273 169" fill="none" xmlns="http://www.w3.org/2000/svg">
<g filter="url(#filter0_d_4_4154)">
<rect x="48" y="28.501" width="177" height="72" rx="8" fill="white"/>
<circle cx="84" cy="64.501" r="24" fill="#F2F1F1"/>
<path d="M89.0499 72.781C88.0699 73.731 86.9999 73.581 85.9699 73.131C84.8799 72.671 83.8799 72.651 82.7299 73.131C81.2899 73.751 80.5299 73.571 79.6699 72.781C74.7899 67.751 75.5099 60.091 81.0499 59.811C82.3999 59.881 83.3399 60.551 84.1299 60.611C85.3099 60.371 86.4399 59.681 87.6999 59.771C89.2099 59.891 90.3499 60.491 91.0999 61.571C87.9799 63.441 88.7199 67.551 91.5799 68.701C91.0099 70.201 90.2699 71.691 89.0399 72.791L89.0499 72.781ZM84.0299 59.751C83.8799 57.521 85.6899 55.681 87.7699 55.501C88.0599 58.081 85.4299 60.001 84.0299 59.751Z" fill="black"/>
<path d="M120.768 47.101V55.501H123.444C124.296 55.501 125.04 55.333 125.688 54.973C126.324 54.625 126.816 54.133 127.164 53.497C127.5 52.861 127.68 52.129 127.68 51.301C127.68 50.473 127.5 49.741 127.164 49.105C126.816 48.481 126.324 47.989 125.688 47.629C125.04 47.281 124.296 47.101 123.444 47.101H120.768ZM123.444 54.301H122.148V48.301H123.444C124.344 48.301 125.04 48.577 125.532 49.117C126.012 49.657 126.264 50.389 126.264 51.301C126.264 52.225 126.012 52.957 125.532 53.497C125.04 54.037 124.344 54.301 123.444 54.301ZM130.017 55.189C130.497 55.453 131.037 55.573 131.661 55.573C132.273 55.573 132.813 55.453 133.293 55.189C133.773 54.925 134.133 54.565 134.397 54.085C134.661 53.605 134.793 53.053 134.793 52.429C134.793 51.817 134.661 51.277 134.397 50.797C134.133 50.317 133.773 49.945 133.293 49.681C132.813 49.417 132.273 49.285 131.661 49.285C131.037 49.285 130.497 49.417 130.017 49.681C129.537 49.945 129.177 50.317 128.913 50.797C128.649 51.277 128.529 51.817 128.529 52.429C128.529 53.053 128.649 53.605 128.913 54.085C129.177 54.565 129.537 54.925 130.017 55.189ZM132.969 53.905C132.633 54.289 132.201 54.469 131.661 54.469C131.109 54.469 130.677 54.289 130.353 53.905C130.017 53.521 129.861 53.029 129.861 52.429C129.861 51.829 130.017 51.349 130.353 50.965C130.677 50.581 131.109 50.389 131.661 50.389C132.201 50.389 132.633 50.581 132.969 50.965C133.305 51.349 133.473 51.829 133.473 52.429C133.473 53.029 133.305 53.521 132.969 53.905ZM135.071 49.357L137.075 55.513L138.479 55.501L139.823 51.325L141.119 55.501H142.511L144.551 49.357H143.231L141.779 54.061L140.435 49.357H139.247L137.843 54.061L136.439 49.357H135.071ZM150.25 49.957C149.794 49.513 149.194 49.285 148.474 49.285C147.622 49.285 146.962 49.585 146.506 50.161L146.362 49.357H145.234V55.501H146.53V52.405C146.53 51.781 146.674 51.301 146.962 50.941C147.25 50.581 147.658 50.401 148.174 50.401C148.654 50.401 149.014 50.557 149.266 50.857C149.506 51.169 149.638 51.613 149.638 52.189V55.501H150.946V52.117C150.946 51.133 150.706 50.413 150.25 49.957ZM152.124 47.101V55.501H153.42V47.101H152.124ZM155.951 55.189C156.431 55.453 156.971 55.573 157.595 55.573C158.207 55.573 158.747 55.453 159.227 55.189C159.707 54.925 160.067 54.565 160.331 54.085C160.595 53.605 160.727 53.053 160.727 52.429C160.727 51.817 160.595 51.277 160.331 50.797C160.067 50.317 159.707 49.945 159.227 49.681C158.747 49.417 158.207 49.285 157.595 49.285C156.971 49.285 156.431 49.417 155.951 49.681C155.471 49.945 155.111 50.317 154.847 50.797C154.583 51.277 154.463 51.817 154.463 52.429C154.463 53.053 154.583 53.605 154.847 54.085C155.111 54.565 155.471 54.925 155.951 55.189ZM158.903 53.905C158.567 54.289 158.135 54.469 157.595 54.469C157.043 54.469 156.611 54.289 156.287 53.905C155.951 53.521 155.795 53.029 155.795 52.429C155.795 51.829 155.951 51.349 156.287 50.965C156.611 50.581 157.043 50.389 157.595 50.389C158.135 50.389 158.567 50.581 158.903 50.965C159.239 51.349 159.407 51.829 159.407 52.429C159.407 53.029 159.239 53.521 158.903 53.905ZM167.649 54.373H167.397C167.121 54.373 166.989 54.229 166.989 53.941V51.517C166.989 50.797 166.761 50.245 166.317 49.861C165.861 49.477 165.225 49.285 164.409 49.285C163.629 49.285 163.005 49.465 162.525 49.801C162.045 50.137 161.769 50.617 161.709 51.229H162.981C163.029 50.965 163.173 50.749 163.413 50.581C163.653 50.413 163.965 50.329 164.349 50.329C164.769 50.329 165.105 50.437 165.345 50.629C165.585 50.821 165.705 51.097 165.705 51.433V51.805H164.157C163.293 51.805 162.645 51.985 162.201 52.321C161.745 52.657 161.529 53.149 161.529 53.773C161.529 54.337 161.733 54.781 162.153 55.093C162.561 55.417 163.113 55.573 163.809 55.573C164.697 55.573 165.369 55.225 165.837 54.517C165.837 54.841 165.921 55.081 166.101 55.249C166.269 55.417 166.557 55.501 166.965 55.501H167.649V54.373ZM165.705 52.765V52.981C165.693 53.461 165.537 53.845 165.237 54.133C164.937 54.421 164.517 54.565 163.989 54.565C163.629 54.565 163.353 54.493 163.149 54.325C162.945 54.169 162.849 53.953 162.849 53.689C162.849 53.389 162.957 53.161 163.173 53.005C163.389 52.849 163.689 52.765 164.097 52.765H165.705ZM174.319 47.101H173.023V50.209C172.807 49.921 172.543 49.705 172.207 49.537C171.871 49.369 171.475 49.285 171.031 49.285C170.479 49.285 169.975 49.417 169.543 49.681C169.099 49.945 168.751 50.305 168.499 50.785C168.247 51.265 168.127 51.805 168.127 52.429C168.127 53.077 168.247 53.629 168.499 54.109C168.739 54.589 169.087 54.949 169.531 55.201C169.963 55.453 170.467 55.573 171.031 55.573C171.871 55.573 172.543 55.249 173.035 54.577L173.191 55.501H174.319V47.101ZM172.543 53.917C172.207 54.301 171.775 54.481 171.247 54.481C170.707 54.481 170.275 54.301 169.951 53.917C169.615 53.533 169.459 53.041 169.459 52.429C169.459 51.829 169.615 51.349 169.951 50.965C170.275 50.581 170.707 50.389 171.247 50.389C171.775 50.389 172.207 50.581 172.543 50.965C172.867 51.349 173.035 51.841 173.035 52.453C173.035 53.053 172.867 53.545 172.543 53.917ZM179.916 55.189C180.396 55.453 180.936 55.573 181.56 55.573C182.172 55.573 182.712 55.453 183.192 55.189C183.672 54.925 184.032 54.565 184.296 54.085C184.56 53.605 184.692 53.053 184.692 52.429C184.692 51.817 184.56 51.277 184.296 50.797C184.032 50.317 183.672 49.945 183.192 49.681C182.712 49.417 182.172 49.285 181.56 49.285C180.936 49.285 180.396 49.417 179.916 49.681C179.436 49.945 179.076 50.317 178.812 50.797C178.548 51.277 178.428 51.817 178.428 52.429C178.428 53.053 178.548 53.605 178.812 54.085C179.076 54.565 179.436 54.925 179.916 55.189ZM182.868 53.905C182.532 54.289 182.1 54.469 181.56 54.469C181.008 54.469 180.576 54.289 180.252 53.905C179.916 53.521 179.76 53.029 179.76 52.429C179.76 51.829 179.916 51.349 180.252 50.965C180.576 50.581 181.008 50.389 181.56 50.389C182.1 50.389 182.532 50.581 182.868 50.965C183.204 51.349 183.372 51.829 183.372 52.429C183.372 53.029 183.204 53.521 182.868 53.905ZM190.75 49.957C190.294 49.513 189.694 49.285 188.974 49.285C188.122 49.285 187.462 49.585 187.006 50.161L186.862 49.357H185.734V55.501H187.03V52.405C187.03 51.781 187.174 51.301 187.462 50.941C187.75 50.581 188.158 50.401 188.674 50.401C189.154 50.401 189.514 50.557 189.766 50.857C190.006 51.169 190.138 51.613 190.138 52.189V55.501H191.446V52.117C191.446 51.133 191.206 50.413 190.75 49.957ZM196.091 50.497V53.833C196.091 54.409 196.223 54.829 196.487 55.093C196.751 55.369 197.183 55.501 197.771 55.501H199.019V54.361H198.035C197.795 54.361 197.639 54.313 197.543 54.217C197.447 54.121 197.399 53.941 197.399 53.701V50.497H198.875V49.357H197.399V47.641H196.091V49.357H195.023V50.497H196.091ZM204.73 49.957C204.274 49.513 203.674 49.285 202.942 49.285C202.114 49.285 201.466 49.609 201.01 50.245V47.101H199.714V55.501H201.01V52.393C201.01 51.781 201.154 51.301 201.442 50.941C201.73 50.581 202.138 50.401 202.654 50.401C203.134 50.401 203.494 50.557 203.746 50.857C203.998 51.169 204.13 51.613 204.13 52.189V55.501H205.426V52.117C205.426 51.133 205.186 50.413 204.73 49.957ZM206.749 50.785C206.497 51.265 206.377 51.817 206.377 52.441C206.377 53.065 206.497 53.617 206.761 54.085C207.025 54.565 207.385 54.925 207.865 55.189C208.345 55.453 208.897 55.573 209.545 55.573C210.277 55.573 210.889 55.381 211.381 54.973C211.873 54.577 212.173 54.061 212.293 53.437H210.997C210.901 53.785 210.721 54.049 210.457 54.241C210.181 54.433 209.845 54.517 209.449 54.517C208.945 54.517 208.537 54.361 208.237 54.049C207.925 53.737 207.757 53.317 207.733 52.777V52.705H212.365C212.389 52.537 212.401 52.381 212.401 52.213C212.389 51.625 212.257 51.109 211.993 50.665C211.729 50.233 211.381 49.885 210.925 49.645C210.469 49.405 209.953 49.285 209.365 49.285C208.777 49.285 208.261 49.417 207.805 49.681C207.349 49.945 207.001 50.305 206.749 50.785ZM211.081 51.757H207.781C207.829 51.325 207.997 50.989 208.309 50.725C208.621 50.461 208.981 50.329 209.413 50.329C209.869 50.329 210.241 50.461 210.541 50.713C210.841 50.965 211.021 51.313 211.081 51.757Z" fill="#515251"/>
<path d="M120.072 81.501L124.68 68.901H127.92L132.492 81.501H129.594L128.622 78.747H123.834L122.862 81.501H120.072ZM124.554 76.569H127.884L126.21 71.781L124.554 76.569ZM140.992 72.735C141.64 73.131 142.144 73.671 142.504 74.391C142.864 75.111 143.062 75.957 143.062 76.893C143.062 77.847 142.864 78.675 142.504 79.377C142.144 80.097 141.64 80.637 140.992 81.033C140.344 81.429 139.606 81.609 138.778 81.609C137.59 81.609 136.654 81.195 135.988 80.331V85.101H133.45V72.249H135.664L135.916 73.527C136.222 73.113 136.618 72.771 137.104 72.519C137.59 72.267 138.148 72.141 138.796 72.141C139.624 72.141 140.344 72.339 140.992 72.735ZM139.858 78.801C140.272 78.297 140.488 77.649 140.488 76.857C140.488 76.065 140.272 75.435 139.858 74.949C139.426 74.463 138.886 74.211 138.202 74.211C137.518 74.211 136.96 74.463 136.564 74.949C136.15 75.435 135.952 76.065 135.952 76.857C135.952 77.667 136.15 78.315 136.564 78.801C136.96 79.305 137.518 79.539 138.202 79.539C138.886 79.539 139.426 79.305 139.858 78.801ZM152.014 72.735C152.662 73.131 153.166 73.671 153.526 74.391C153.886 75.111 154.084 75.957 154.084 76.893C154.084 77.847 153.886 78.675 153.526 79.377C153.166 80.097 152.662 80.637 152.014 81.033C151.366 81.429 150.628 81.609 149.8 81.609C148.612 81.609 147.676 81.195 147.01 80.331V85.101H144.472V72.249H146.686L146.938 73.527C147.244 73.113 147.64 72.771 148.126 72.519C148.612 72.267 149.17 72.141 149.818 72.141C150.646 72.141 151.366 72.339 152.014 72.735ZM150.88 78.801C151.294 78.297 151.51 77.649 151.51 76.857C151.51 76.065 151.294 75.435 150.88 74.949C150.448 74.463 149.908 74.211 149.224 74.211C148.54 74.211 147.982 74.463 147.586 74.949C147.172 75.435 146.974 76.065 146.974 76.857C146.974 77.667 147.172 78.315 147.586 78.801C147.982 79.305 148.54 79.539 149.224 79.539C149.908 79.539 150.448 79.305 150.88 78.801ZM157.493 78.423C157.529 78.837 157.727 79.161 158.087 79.413C158.447 79.665 158.897 79.791 159.473 79.791C160.013 79.791 160.427 79.719 160.751 79.539C161.057 79.359 161.219 79.107 161.219 78.783C161.219 78.549 161.147 78.369 161.003 78.243C160.859 78.135 160.643 78.045 160.391 77.991C160.121 77.937 159.689 77.865 159.095 77.793C158.267 77.685 157.601 77.559 157.061 77.379C156.521 77.217 156.089 76.947 155.765 76.587C155.441 76.227 155.279 75.759 155.279 75.147C155.279 74.553 155.441 74.031 155.765 73.563C156.089 73.095 156.557 72.735 157.169 72.483C157.763 72.231 158.447 72.105 159.239 72.105C160.499 72.123 161.507 72.393 162.281 72.915C163.055 73.455 163.469 74.175 163.541 75.111H161.129C161.093 74.769 160.895 74.481 160.571 74.265C160.247 74.049 159.815 73.923 159.311 73.923C158.825 73.923 158.429 74.013 158.141 74.193C157.853 74.373 157.709 74.625 157.709 74.913C157.709 75.129 157.781 75.291 157.943 75.399C158.087 75.507 158.303 75.597 158.555 75.633C158.807 75.687 159.221 75.741 159.815 75.795C161.057 75.939 162.011 76.209 162.677 76.605C163.343 77.001 163.685 77.667 163.685 78.603C163.685 79.215 163.505 79.737 163.145 80.187C162.785 80.655 162.299 80.997 161.669 81.249C161.039 81.501 160.319 81.609 159.491 81.609C158.195 81.609 157.151 81.339 156.359 80.763C155.549 80.187 155.117 79.413 155.081 78.423H157.493ZM165.738 74.391H164.208V72.249H165.738V69.657H168.276V72.249H170.382V74.391H168.276V78.441C168.276 78.765 168.33 78.999 168.474 79.143C168.618 79.287 168.852 79.359 169.176 79.359H170.49V81.501H168.384C166.62 81.501 165.738 80.619 165.738 78.855V74.391ZM173.363 81.033C172.625 80.637 172.049 80.079 171.653 79.359C171.257 78.639 171.059 77.811 171.059 76.875C171.059 75.939 171.257 75.111 171.653 74.391C172.049 73.671 172.625 73.131 173.363 72.735C174.101 72.339 174.965 72.141 175.937 72.141C176.909 72.141 177.755 72.339 178.493 72.735C179.231 73.131 179.807 73.671 180.203 74.391C180.599 75.111 180.815 75.939 180.815 76.875C180.815 77.829 180.599 78.657 180.203 79.377C179.807 80.097 179.231 80.637 178.493 81.033C177.755 81.429 176.909 81.609 175.937 81.609C174.965 81.609 174.101 81.429 173.363 81.033ZM177.611 78.801C178.025 78.315 178.241 77.667 178.241 76.875C178.241 76.083 178.025 75.453 177.611 74.949C177.197 74.463 176.639 74.211 175.937 74.211C175.235 74.211 174.677 74.463 174.263 74.949C173.849 75.453 173.651 76.083 173.651 76.875C173.651 77.667 173.849 78.315 174.263 78.801C174.677 79.305 175.235 79.539 175.937 79.539C176.639 79.539 177.197 79.305 177.611 78.801ZM187.846 72.249V74.553H186.838C186.118 74.553 185.578 74.769 185.254 75.201C184.912 75.633 184.75 76.227 184.75 76.965V81.501H182.212V72.249H184.516L184.75 73.635C185.02 73.185 185.362 72.843 185.776 72.609C186.172 72.375 186.73 72.249 187.414 72.249H187.846ZM188.897 74.391C189.293 73.671 189.833 73.131 190.535 72.735C191.237 72.339 192.047 72.141 192.983 72.141C193.919 72.141 194.729 72.339 195.449 72.699C196.169 73.059 196.727 73.581 197.123 74.247C197.519 74.913 197.735 75.687 197.753 76.587C197.753 76.911 197.717 77.199 197.681 77.451H190.967V77.523C191.021 78.207 191.237 78.729 191.615 79.107C191.975 79.503 192.497 79.683 193.145 79.683C193.649 79.683 194.081 79.575 194.423 79.359C194.765 79.143 194.999 78.801 195.107 78.369H197.609C197.501 78.981 197.267 79.539 196.907 80.025C196.529 80.529 196.043 80.907 195.431 81.195C194.819 81.483 194.117 81.609 193.325 81.609C192.281 81.609 191.399 81.429 190.643 81.033C189.887 80.655 189.311 80.115 188.915 79.395C188.519 78.675 188.321 77.847 188.321 76.893C188.321 75.939 188.501 75.111 188.897 74.391ZM195.215 75.795C195.125 75.237 194.891 74.805 194.513 74.499C194.135 74.193 193.667 74.031 193.091 74.031C192.533 74.031 192.065 74.193 191.687 74.517C191.309 74.841 191.093 75.255 191.021 75.795H195.215Z" fill="#515251"/>
</g>
<defs>
<filter id="filter0_d_4_4154" x="0" y="0.501038" width="273" height="168" filterUnits="userSpaceOnUse" color-interpolation-filters="sRGB">
<feFlood flood-opacity="0" result="BackgroundImageFix"/>
<feColorMatrix in="SourceAlpha" type="matrix" values="0 0 0 0 0 0 0 0 0 0 0 0 0 0 0 0 0 0 127 0" result="hardAlpha"/>
<feOffset dy="20"/>
<feGaussianBlur stdDeviation="24"/>
<feColorMatrix type="matrix" values="0 0 0 0 0.666667 0 0 0 0 0.666667 0 0 0 0 0.666667 0 0 0 0.29 0"/>
<feBlend mode="normal" in2="BackgroundImageFix" result="effect1_dropShadow_4_4154"/>
<feBlend mode="normal" in="SourceGraphic" in2="effect1_dropShadow_4_4154" result="shape"/>
</filter>
</defs>
</svg>
