<svg width="50" height="222" viewBox="0 0 50 222" fill="none" xmlns="http://www.w3.org/2000/svg">
<path d="M27.9477 211C27.9477 216.891 32.7233 221.667 38.6144 221.667C44.5054 221.667 49.281 216.891 49.281 211C49.281 205.109 44.5054 200.333 38.6144 200.333C32.7233 200.333 27.9477 205.109 27.9477 211ZM38.6144 0H26.6144V4H38.6144V0ZM0.61438 26V187H4.61438V26H0.61438ZM26.6144 213H38.6144V209H26.6144V213ZM0.61438 187C0.61438 201.359 12.255 213 26.6144 213V209C14.4641 209 4.61438 199.15 4.61438 187H0.61438ZM26.6144 0C12.255 0 0.61438 11.6406 0.61438 26H4.61438C4.61438 13.8497 14.4641 4 26.6144 4V0Z" fill="#D9EBCD"/>
<mask id="mask0_5268_462" style="mask-type:alpha" maskUnits="userSpaceOnUse" x="0" y="0" width="50" height="222">
<path d="M27.9477 211C27.9477 216.891 32.7233 221.667 38.6144 221.667C44.5054 221.667 49.281 216.891 49.281 211C49.281 205.109 44.5054 200.333 38.6144 200.333C32.7233 200.333 27.9477 205.109 27.9477 211ZM38.6144 0H26.6144V4H38.6144V0ZM0.61438 26V187H4.61438V26H0.61438ZM26.6144 213H38.6144V209H26.6144V213ZM0.61438 187C0.61438 201.359 12.255 213 26.6144 213V209C14.4641 209 4.61438 199.15 4.61438 187H0.61438ZM26.6144 0C12.255 0 0.61438 11.6406 0.61438 26H4.61438C4.61438 13.8497 14.4641 4 26.6144 4V0Z" fill="#D9EBCD"/>
</mask>
<g mask="url(#mask0_5268_462)">
<rect x="47.6144" y="-6" width="5" height="13" fill="#11453B"/>
</g>
</svg>
