<svg width="302" height="245" viewBox="0 0 302 245" fill="none" xmlns="http://www.w3.org/2000/svg">
<path d="M22.281 234C22.281 239.891 17.5054 244.667 11.6144 244.667C5.72336 244.667 0.947723 239.891 0.947723 234C0.947723 228.109 5.72336 223.333 11.6144 223.333C17.5054 223.333 22.281 228.109 22.281 234ZM11.6144 0H275.614V4H11.6144V0ZM301.614 26V210H297.614V26H301.614ZM275.614 236H11.6144V232H275.614V236ZM301.614 210C301.614 224.359 289.974 236 275.614 236V232C287.765 232 297.614 222.15 297.614 210H301.614ZM275.614 0C289.974 0 301.614 11.6406 301.614 26H297.614C297.614 13.8497 287.765 4 275.614 4V0Z" fill="#D9EBCD"/>
<mask id="mask0_5268_493" style="mask-type:alpha" maskUnits="userSpaceOnUse" x="0" y="0" width="302" height="245">
<path d="M22.281 234C22.281 239.891 17.5054 244.667 11.6144 244.667C5.72336 244.667 0.947723 239.891 0.947723 234C0.947723 228.109 5.72336 223.333 11.6144 223.333C17.5054 223.333 22.281 228.109 22.281 234ZM11.6144 0H275.614V4H11.6144V0ZM301.614 26V210H297.614V26H301.614ZM275.614 236H11.6144V232H275.614V236ZM301.614 210C301.614 224.359 289.974 236 275.614 236V232C287.765 232 297.614 222.15 297.614 210H301.614ZM275.614 0C289.974 0 301.614 11.6406 301.614 26H297.614C297.614 13.8497 287.765 4 275.614 4V0Z" fill="#D9EBCD"/>
</mask>
<g mask="url(#mask0_5268_493)">
</g>
</svg>
