<svg width="109" height="111" viewBox="0 0 109 111" fill="none" xmlns="http://www.w3.org/2000/svg">
<circle cx="3.81087" cy="5.45528" r="3.26692" fill="#EA4E4B"/>
<circle cx="24.0658" cy="5.45515" r="3.26692" fill="#EA4E4B"/>
<circle cx="44.3206" cy="5.45515" r="3.26692" fill="#EA4E4B"/>
<circle cx="64.5755" cy="5.45515" r="3.26692" fill="#EA4E4B"/>
<circle cx="3.81087" cy="22.4433" r="3.26692" fill="#EA4E4B"/>
<circle cx="24.0658" cy="22.4434" r="3.26692" fill="#EA4E4B"/>
<circle cx="44.3206" cy="22.4434" r="3.26692" fill="#EA4E4B"/>
<circle cx="64.5755" cy="22.4434" r="3.26692" fill="#EA4E4B"/>
<circle cx="3.81087" cy="39.4314" r="3.26692" fill="#EA4E4B"/>
<circle cx="24.0658" cy="39.4312" r="3.26692" fill="#EA4E4B"/>
<circle cx="44.3206" cy="39.4312" r="3.26692" fill="#EA4E4B"/>
<circle cx="64.5755" cy="39.4312" r="3.26692" fill="#EA4E4B"/>
<circle cx="3.81087" cy="56.4193" r="3.26692" fill="#EA4E4B"/>
<circle cx="24.0658" cy="56.4193" r="3.26692" fill="#EA4E4B"/>
<circle cx="44.3206" cy="56.4193" r="3.26692" fill="#EA4E4B"/>
<circle cx="64.5755" cy="56.4193" r="3.26692" fill="#EA4E4B"/>
<circle cx="3.81087" cy="73.4073" r="3.26692" fill="#EA4E4B"/>
<circle cx="24.0658" cy="73.4075" r="3.26692" fill="#EA4E4B"/>
<circle cx="44.3206" cy="73.4075" r="3.26692" fill="#EA4E4B"/>
<circle cx="64.5755" cy="73.4075" r="3.26692" fill="#EA4E4B"/>
<circle cx="3.81087" cy="90.3952" r="3.26692" fill="#EA4E4B"/>
<circle cx="24.0658" cy="90.3951" r="3.26692" fill="#EA4E4B"/>
<circle cx="44.3206" cy="90.3951" r="3.26692" fill="#EA4E4B"/>
<circle cx="64.5755" cy="90.3951" r="3.26692" fill="#EA4E4B"/>
<circle cx="3.81087" cy="107.383" r="3.26692" fill="#EA4E4B"/>
<circle cx="24.0658" cy="107.383" r="3.26692" fill="#EA4E4B"/>
<circle cx="44.3206" cy="107.383" r="3.26692" fill="#EA4E4B"/>
<circle cx="64.5755" cy="107.383" r="3.26692" fill="#EA4E4B"/>
</svg>
