<svg width="281" height="169" viewBox="0 0 281 169" fill="none" xmlns="http://www.w3.org/2000/svg">
<g filter="url(#filter0_d_4_4162)">
<rect x="48" y="28.501" width="185" height="72" rx="8" fill="white"/>
<circle cx="84" cy="64.501" r="24" fill="#F2F1F1"/>
<g clip-path="url(#clip0_4_4162)">
<path d="M83.2837 63.9427L73.2349 74.4709C73.3477 74.8708 73.5505 75.2396 73.8277 75.5492C74.105 75.8587 74.4493 76.1007 74.8344 76.2568C75.2195 76.4129 75.6352 76.4788 76.0497 76.4496C76.4642 76.4204 76.8666 76.2968 77.226 76.0882L88.5329 69.6486L83.2837 63.9427Z" fill="#EA4335"/>
<path d="M93.4449 62.1531L88.5555 59.3525L83.0518 64.1822L88.5779 69.6335L93.4301 66.8629C93.86 66.6378 94.22 66.2993 94.4712 65.8842C94.7224 65.4691 94.8552 64.9932 94.8552 64.5079C94.8552 64.0227 94.7224 63.5468 94.4712 63.1317C94.22 62.7165 93.86 62.3781 93.4301 62.153H93.4451L93.4449 62.1531Z" fill="#FBBC04"/>
<path d="M73.2349 54.4929C73.1742 54.7174 73.144 54.9491 73.145 55.1817V73.7819C73.1457 74.0144 73.1759 74.246 73.2349 74.4709L83.6283 64.2123L73.2349 54.4929Z" fill="#4285F4"/>
<path d="M83.3586 64.4819L88.5553 59.3526L77.2635 52.8829C76.8386 52.6341 76.3554 52.5023 75.8631 52.501C74.6413 52.4987 73.5671 53.3096 73.2349 54.4854L83.3586 64.4819Z" fill="#34A853"/>
</g>
<path d="M120.936 49.069C120.6 49.717 120.444 50.461 120.444 51.301C120.444 52.141 120.612 52.885 120.948 53.533C121.284 54.181 121.752 54.685 122.352 55.045C122.952 55.405 123.636 55.573 124.416 55.573C125.016 55.573 125.544 55.453 125.988 55.201C126.432 54.961 126.78 54.661 127.02 54.301L127.164 55.501H128.208V50.905H124.56V52.069H126.888V52.273C126.852 52.933 126.612 53.449 126.156 53.809C125.7 54.181 125.148 54.361 124.476 54.361C123.948 54.361 123.48 54.241 123.084 53.977C122.688 53.713 122.388 53.353 122.172 52.897C121.956 52.441 121.86 51.901 121.86 51.301C121.86 50.701 121.968 50.173 122.184 49.717C122.4 49.261 122.7 48.901 123.096 48.637C123.492 48.373 123.96 48.241 124.488 48.241C125.064 48.241 125.544 48.397 125.94 48.697C126.336 49.009 126.6 49.429 126.744 49.957H128.112C127.968 49.069 127.572 48.349 126.936 47.821C126.288 47.293 125.484 47.029 124.524 47.029C123.696 47.029 122.976 47.209 122.364 47.569C121.74 47.929 121.272 48.421 120.936 49.069ZM129.757 50.785C129.505 51.265 129.385 51.817 129.385 52.441C129.385 53.065 129.505 53.617 129.769 54.085C130.033 54.565 130.393 54.925 130.873 55.189C131.353 55.453 131.905 55.573 132.553 55.573C133.285 55.573 133.897 55.381 134.389 54.973C134.881 54.577 135.181 54.061 135.301 53.437H134.005C133.909 53.785 133.729 54.049 133.465 54.241C133.189 54.433 132.853 54.517 132.457 54.517C131.953 54.517 131.545 54.361 131.245 54.049C130.933 53.737 130.765 53.317 130.741 52.777V52.705H135.373C135.397 52.537 135.409 52.381 135.409 52.213C135.397 51.625 135.265 51.109 135.001 50.665C134.737 50.233 134.389 49.885 133.933 49.645C133.477 49.405 132.961 49.285 132.373 49.285C131.785 49.285 131.269 49.417 130.813 49.681C130.357 49.945 130.009 50.305 129.757 50.785ZM134.089 51.757H130.789C130.837 51.325 131.005 50.989 131.317 50.725C131.629 50.461 131.989 50.329 132.421 50.329C132.877 50.329 133.249 50.461 133.549 50.713C133.849 50.965 134.029 51.313 134.089 51.757ZM136.805 50.497V53.833C136.805 54.409 136.937 54.829 137.201 55.093C137.465 55.369 137.897 55.501 138.485 55.501H139.733V54.361H138.749C138.509 54.361 138.353 54.313 138.257 54.217C138.161 54.121 138.113 53.941 138.113 53.701V50.497H139.589V49.357H138.113V47.641H136.805V49.357H135.737V50.497H136.805ZM144.759 55.189C145.239 55.453 145.779 55.573 146.403 55.573C147.015 55.573 147.555 55.453 148.035 55.189C148.515 54.925 148.875 54.565 149.139 54.085C149.403 53.605 149.535 53.053 149.535 52.429C149.535 51.817 149.403 51.277 149.139 50.797C148.875 50.317 148.515 49.945 148.035 49.681C147.555 49.417 147.015 49.285 146.403 49.285C145.779 49.285 145.239 49.417 144.759 49.681C144.279 49.945 143.919 50.317 143.655 50.797C143.391 51.277 143.271 51.817 143.271 52.429C143.271 53.053 143.391 53.605 143.655 54.085C143.919 54.565 144.279 54.925 144.759 55.189ZM147.711 53.905C147.375 54.289 146.943 54.469 146.403 54.469C145.851 54.469 145.419 54.289 145.095 53.905C144.759 53.521 144.603 53.029 144.603 52.429C144.603 51.829 144.759 51.349 145.095 50.965C145.419 50.581 145.851 50.389 146.403 50.389C146.943 50.389 147.375 50.581 147.711 50.965C148.047 51.349 148.215 51.829 148.215 52.429C148.215 53.029 148.047 53.521 147.711 53.905ZM155.593 49.957C155.137 49.513 154.537 49.285 153.817 49.285C152.965 49.285 152.305 49.585 151.849 50.161L151.705 49.357H150.577V55.501H151.873V52.405C151.873 51.781 152.017 51.301 152.305 50.941C152.593 50.581 153.001 50.401 153.517 50.401C153.997 50.401 154.357 50.557 154.609 50.857C154.849 51.169 154.981 51.613 154.981 52.189V55.501H156.289V52.117C156.289 51.133 156.049 50.413 155.593 49.957Z" fill="#515251"/>
<path d="M121.332 71.835C121.836 70.863 122.556 70.125 123.492 69.585C124.428 69.063 125.544 68.793 126.822 68.793C127.812 68.793 128.712 68.991 129.504 69.369C130.296 69.765 130.926 70.305 131.412 70.989C131.898 71.691 132.204 72.483 132.312 73.383H129.648C129.468 72.681 129.144 72.123 128.64 71.709C128.136 71.295 127.506 71.079 126.75 71.079C126.048 71.079 125.436 71.259 124.932 71.601C124.41 71.961 124.014 72.447 123.744 73.059C123.456 73.689 123.33 74.409 123.33 75.201C123.33 76.443 123.618 77.433 124.23 78.189C124.842 78.945 125.67 79.323 126.75 79.323C127.524 79.323 128.208 79.125 128.82 78.693C129.414 78.261 129.774 77.631 129.9 76.803V76.641H126.768V74.499H132.402V81.501H130.53L130.242 79.935C129.864 80.439 129.36 80.835 128.748 81.141C128.118 81.465 127.398 81.609 126.57 81.609C125.382 81.609 124.32 81.357 123.42 80.817C122.52 80.295 121.818 79.539 121.314 78.567C120.81 77.595 120.576 76.479 120.576 75.201C120.576 73.923 120.828 72.807 121.332 71.835ZM136.308 81.033C135.57 80.637 134.994 80.079 134.598 79.359C134.202 78.639 134.004 77.811 134.004 76.875C134.004 75.939 134.202 75.111 134.598 74.391C134.994 73.671 135.57 73.131 136.308 72.735C137.046 72.339 137.91 72.141 138.882 72.141C139.854 72.141 140.7 72.339 141.438 72.735C142.176 73.131 142.752 73.671 143.148 74.391C143.544 75.111 143.76 75.939 143.76 76.875C143.76 77.829 143.544 78.657 143.148 79.377C142.752 80.097 142.176 80.637 141.438 81.033C140.7 81.429 139.854 81.609 138.882 81.609C137.91 81.609 137.046 81.429 136.308 81.033ZM140.556 78.801C140.97 78.315 141.186 77.667 141.186 76.875C141.186 76.083 140.97 75.453 140.556 74.949C140.142 74.463 139.584 74.211 138.882 74.211C138.18 74.211 137.622 74.463 137.208 74.949C136.794 75.453 136.596 76.083 136.596 76.875C136.596 77.667 136.794 78.315 137.208 78.801C137.622 79.305 138.18 79.539 138.882 79.539C139.584 79.539 140.142 79.305 140.556 78.801ZM147.101 81.033C146.363 80.637 145.787 80.079 145.391 79.359C144.995 78.639 144.797 77.811 144.797 76.875C144.797 75.939 144.995 75.111 145.391 74.391C145.787 73.671 146.363 73.131 147.101 72.735C147.839 72.339 148.703 72.141 149.675 72.141C150.647 72.141 151.493 72.339 152.231 72.735C152.969 73.131 153.545 73.671 153.941 74.391C154.337 75.111 154.553 75.939 154.553 76.875C154.553 77.829 154.337 78.657 153.941 79.377C153.545 80.097 152.969 80.637 152.231 81.033C151.493 81.429 150.647 81.609 149.675 81.609C148.703 81.609 147.839 81.429 147.101 81.033ZM151.349 78.801C151.763 78.315 151.979 77.667 151.979 76.875C151.979 76.083 151.763 75.453 151.349 74.949C150.935 74.463 150.377 74.211 149.675 74.211C148.973 74.211 148.415 74.463 148.001 74.949C147.587 75.453 147.389 76.083 147.389 76.875C147.389 77.667 147.587 78.315 148.001 78.801C148.415 79.305 148.973 79.539 149.675 79.539C150.377 79.539 150.935 79.305 151.349 78.801ZM165.202 72.249V81.231C165.202 82.455 164.788 83.409 163.996 84.129C163.186 84.849 161.944 85.209 160.252 85.209C158.938 85.209 157.876 84.921 157.084 84.345C156.274 83.769 155.842 82.959 155.788 81.897H158.344C158.452 82.347 158.686 82.689 159.046 82.923C159.406 83.175 159.874 83.283 160.45 83.283C161.17 83.283 161.728 83.103 162.124 82.743C162.52 82.383 162.718 81.861 162.718 81.141V80.169C162.034 81.033 161.08 81.447 159.856 81.447C159.028 81.447 158.308 81.267 157.66 80.871C157.012 80.493 156.49 79.953 156.13 79.251C155.77 78.549 155.59 77.721 155.59 76.785C155.59 75.867 155.77 75.057 156.13 74.337C156.49 73.635 157.012 73.095 157.66 72.699C158.308 72.321 159.046 72.123 159.874 72.123C161.08 72.123 162.034 72.591 162.754 73.527L162.97 72.249H165.202ZM162.088 78.693C162.484 78.225 162.7 77.595 162.7 76.821C162.7 76.047 162.484 75.417 162.088 74.913C161.674 74.427 161.134 74.175 160.45 74.175C159.766 74.175 159.208 74.427 158.794 74.913C158.38 75.399 158.182 76.029 158.182 76.803C158.182 77.595 158.38 78.225 158.794 78.693C159.208 79.179 159.766 79.413 160.45 79.413C161.134 79.413 161.674 79.179 162.088 78.693ZM166.972 68.901H169.51V81.501H166.972V68.901ZM171.494 74.391C171.89 73.671 172.43 73.131 173.132 72.735C173.834 72.339 174.644 72.141 175.58 72.141C176.516 72.141 177.326 72.339 178.046 72.699C178.766 73.059 179.324 73.581 179.72 74.247C180.116 74.913 180.332 75.687 180.35 76.587C180.35 76.911 180.314 77.199 180.278 77.451H173.564V77.523C173.618 78.207 173.834 78.729 174.212 79.107C174.572 79.503 175.094 79.683 175.742 79.683C176.246 79.683 176.678 79.575 177.02 79.359C177.362 79.143 177.596 78.801 177.704 78.369H180.206C180.098 78.981 179.864 79.539 179.504 80.025C179.126 80.529 178.64 80.907 178.028 81.195C177.416 81.483 176.714 81.609 175.922 81.609C174.878 81.609 173.996 81.429 173.24 81.033C172.484 80.655 171.908 80.115 171.512 79.395C171.116 78.675 170.918 77.847 170.918 76.893C170.918 75.939 171.098 75.111 171.494 74.391ZM177.812 75.795C177.722 75.237 177.488 74.805 177.11 74.499C176.732 74.193 176.264 74.031 175.688 74.031C175.13 74.031 174.662 74.193 174.284 74.517C173.906 74.841 173.69 75.255 173.618 75.795H177.812ZM191.53 68.901C192.43 68.901 193.222 69.081 193.906 69.423C194.59 69.765 195.13 70.251 195.508 70.881C195.886 71.529 196.084 72.267 196.084 73.095C196.084 73.941 195.886 74.679 195.508 75.309C195.13 75.939 194.59 76.425 193.906 76.767C193.222 77.109 192.43 77.271 191.53 77.271H189.1V81.501H186.4V68.901H191.53ZM189.1 75.021H191.278C191.908 75.021 192.412 74.859 192.79 74.499C193.15 74.157 193.348 73.689 193.348 73.095C193.348 72.501 193.15 72.033 192.79 71.673C192.412 71.331 191.908 71.151 191.278 71.151H189.1V75.021ZM197.4 68.901H199.938V81.501H197.4V68.901ZM210.814 79.359V81.501H209.518C208.348 81.501 207.772 80.997 207.808 79.989C207.466 80.529 207.052 80.925 206.566 81.195C206.062 81.483 205.468 81.609 204.784 81.609C203.74 81.609 202.912 81.375 202.282 80.907C201.652 80.439 201.346 79.755 201.346 78.891C201.346 77.919 201.706 77.163 202.426 76.623C203.146 76.083 204.208 75.813 205.594 75.813H207.43V75.363C207.43 74.949 207.268 74.625 206.962 74.373C206.638 74.121 206.224 73.995 205.702 73.995C205.234 73.995 204.838 74.103 204.55 74.301C204.244 74.517 204.064 74.787 204.01 75.129H201.562C201.634 74.193 202.066 73.455 202.822 72.933C203.578 72.411 204.568 72.141 205.828 72.141C207.124 72.141 208.132 72.429 208.852 73.005C209.572 73.581 209.932 74.427 209.932 75.507V78.765C209.932 78.999 209.968 79.161 210.076 79.233C210.166 79.323 210.31 79.359 210.526 79.359H210.814ZM207.43 77.505H205.576C205.036 77.505 204.622 77.613 204.334 77.829C204.046 78.045 203.902 78.333 203.902 78.711C203.902 79.035 204.01 79.305 204.262 79.485C204.514 79.683 204.838 79.773 205.27 79.773C205.918 79.773 206.44 79.593 206.836 79.215C207.214 78.837 207.412 78.333 207.43 77.685V77.505ZM213.28 72.249L215.53 78.891L217.726 72.249H220.444L216.34 82.815C216.124 83.391 215.908 83.823 215.728 84.147C215.53 84.471 215.278 84.705 214.99 84.867C214.702 85.029 214.324 85.101 213.856 85.101H211.39V82.959H212.794C213.118 82.959 213.352 82.905 213.496 82.797C213.64 82.689 213.766 82.491 213.91 82.167L214.144 81.555L210.58 72.249H213.28Z" fill="#515251"/>
</g>
<defs>
<filter id="filter0_d_4_4162" x="0" y="0.501038" width="281" height="168" filterUnits="userSpaceOnUse" color-interpolation-filters="sRGB">
<feFlood flood-opacity="0" result="BackgroundImageFix"/>
<feColorMatrix in="SourceAlpha" type="matrix" values="0 0 0 0 0 0 0 0 0 0 0 0 0 0 0 0 0 0 127 0" result="hardAlpha"/>
<feOffset dy="20"/>
<feGaussianBlur stdDeviation="24"/>
<feColorMatrix type="matrix" values="0 0 0 0 0.666667 0 0 0 0 0.666667 0 0 0 0 0.666667 0 0 0 0.29 0"/>
<feBlend mode="normal" in2="BackgroundImageFix" result="effect1_dropShadow_4_4162"/>
<feBlend mode="normal" in="SourceGraphic" in2="effect1_dropShadow_4_4162" result="shape"/>
</filter>
<clipPath id="clip0_4_4162">
<rect width="21.7102" height="24" fill="white" transform="translate(73.145 52.501)"/>
</clipPath>
</defs>
</svg>
