<svg width="1512" height="938" viewBox="0 0 1512 938" fill="none" xmlns="http://www.w3.org/2000/svg">
<g opacity="0.8">
<mask id="mask0_4_4497" style="mask-type:alpha" maskUnits="userSpaceOnUse" x="0" y="0" width="1512" height="938">
<path fill-rule="evenodd" clip-rule="evenodd" d="M389.405 0.046875H0V926.131C251.375 871.102 539.657 873.57 907.458 906.06C1137.9 932.77 1335.76 943.444 1512 934.045V13.2884C1265.56 71.2822 984.201 66.7286 620.444 16.573C539.721 9.44501 462.854 3.85977 389.405 0.046875Z" fill="#F0F7EB"/>
</mask>
<g mask="url(#mask0_4_4497)">
<g opacity="0.05">
<path fill-rule="evenodd" clip-rule="evenodd" d="M503.337 343.683C503.229 319.265 460.155 291.807 441.755 277.65C405.374 249.651 367.536 223.795 330.049 197.526C292.561 171.256 254.973 145.058 219.226 116.218C196.016 97.4975 168.744 76.4123 153.002 49.6803C119.469 -7.28737 225.197 1.17241 252.584 -0.0737534C322.256 -3.25682 402.169 -1.80418 467.475 -31.4701C506.46 -49.1799 522.006 -78.8814 513.633 -122.17C510.934 -136.248 502.945 -152.448 509.713 -166.163C516.939 -180.811 533.564 -189.263 547.362 -194.932C597.689 -215.582 655.553 -217.975 708.802 -220.567C766.22 -223.415 824.179 -222.582 881.193 -222.803C905.368 -222.896 930.616 -232.06 953.637 -239.509C983.817 -249.272 1013.64 -260.238 1043.57 -270.841C1109.42 -294.112 1177.27 -318.623 1246.93 -324.533C1290.56 -328.236 1338.24 -323.23 1372.13 -291.022C1389.15 -274.85 1398.05 -250.81 1407.89 -229.454C1419.8 -203.655 1431.24 -177.606 1443.91 -152.213C1484.76 -70.4288 1543.06 9.48965 1637.71 13.5059C1652.02 14.1111 1666.09 12.1387 1680.34 11.7684C1689.41 11.5405 1697.49 13.8548 1700.86 23.874C1709.34 49.0039 1682.68 88.6747 1671.75 108.613C1647.82 152.258 1620.83 193.944 1595.55 236.712C1578.82 264.997 1549.87 303.649 1549.57 338.015C1549.3 368.635 1587.89 390.767 1608.9 405.849C1628.59 419.97 1664.26 439.731 1666.42 468.456C1667.47 482.385 1658.77 493.928 1649.68 502.886C1633.75 518.552 1615.39 529.604 1601.06 547.478C1577.56 576.802 1557.93 617.149 1561.12 656.663C1563.33 684.043 1578.14 701.974 1596.97 719.114C1604.88 726.32 1611.31 731.419 1611.72 743.119C1612.4 761.697 1605.5 781.358 1599.82 798.584C1579.5 860.23 1550.63 919.839 1518.53 975.497C1502.48 1003.31 1485.15 1031.04 1463.87 1054.77C1449.94 1070.35 1431.15 1088.89 1409.9 1088.87C1385.29 1088.87 1359.25 1079.5 1335.33 1072.49C1290.66 1059.4 1246.53 1044.26 1202.57 1028.73C1100.91 992.794 1000.21 953.951 900.463 912.199C830.204 882.739 758.454 853.237 692.4 814.072C679.517 806.381 667.358 797.413 656.086 787.29C644.042 776.658 629.097 771.902 613.943 768.355C519.887 746.344 416.844 763.243 322.397 773.838C298.424 776.523 274.452 779.222 250.411 781.102C229.745 782.718 205.003 787.354 184.917 780.39C145.338 766.682 179.937 716.159 194.565 695.572C246.066 623.088 312.513 561.762 374.101 499.155C403.384 469.339 432.889 439.602 460.58 408.099C474.998 391.721 503.431 365.089 503.337 343.683Z" stroke="#11453B"/>
<path fill-rule="evenodd" clip-rule="evenodd" d="M521.084 339.567C505.299 313.729 477.603 294.632 454.613 276.66C421.529 250.786 387.405 226.351 353.795 201.211C322.014 177.437 290.166 153.393 260.735 126.396C242.788 109.932 220.271 90.2442 211.771 65.8942C193.331 13.1157 292.529 21.1232 317.018 19.7423C377.899 16.3258 446.923 15.5428 503.246 -12.2451C538.416 -29.5983 552.865 -58.3756 545.364 -98.3278C542.771 -112.151 538.099 -123.952 544.014 -137.704C550.853 -153.619 566.585 -163.541 581.007 -170.545C626.183 -192.489 679.583 -197.151 728.554 -201.031C779.145 -205.038 831.857 -207.864 880.821 -204.931C900.401 -203.764 922.939 -210.391 942.316 -215.473C972.132 -223.302 1001.64 -232.335 1031.31 -240.734C1091.61 -257.817 1153.47 -274.273 1216.19 -276.145C1261.47 -277.497 1308.69 -270.166 1346.37 -241.83C1384.55 -213.095 1401.49 -168.552 1422.66 -126.208C1459.23 -53.0017 1508.62 36.0065 1593.22 51.4735C1606.05 53.8224 1618.38 52.5484 1631.19 53.1249C1637.78 53.4167 1645.28 54.342 1648.62 61.1964C1657.3 78.991 1633.53 111.526 1625.53 125.157C1603.42 162.825 1578.57 198.648 1555.4 235.59C1537 264.922 1513.68 297.515 1506.57 332.285C1497.93 374.48 1554.35 404.502 1574.2 434.212C1608.6 485.731 1543.42 515.085 1511.29 539.648C1474.39 567.849 1443.94 619.297 1477.01 662.929C1489.67 679.613 1505.24 689.556 1510.89 711.33C1519.72 745.381 1513.04 784.294 1505.87 817.955C1495.07 868.555 1477.97 918.607 1454.73 964.339C1438.08 997.081 1410.46 1048.42 1370.01 1044.57C1342.78 1042 1315.1 1032.61 1288.58 1024.31C1248.88 1011.89 1209.68 997.736 1170.69 983.031C1080.68 949.178 991.665 911.853 904.398 870.797C844.854 842.774 678.76 728.256 666.262 724.17C628.999 711.999 586.631 714.141 548.213 716.028C497.109 718.533 446.261 725.024 395.453 731.039C371.269 733.886 346.962 737.367 322.649 738.769C305.344 739.765 282.617 740.62 267.459 730.007C237.873 709.301 270.835 661.925 284.467 641.881C326.227 580.433 379.053 527.221 428.585 472.812C452.891 446.099 477.569 419.429 499.634 390.573C508.533 378.921 530.841 355.525 521.084 339.567Z" stroke="#11453B"/>
<path fill-rule="evenodd" clip-rule="evenodd" d="M542.923 326.316C499.813 274.612 440.311 236.158 388.958 192.976C363.183 171.296 337.246 149.026 315.016 123.202C303.452 109.774 289.012 92.7935 286.784 74.0755C280.83 24.0019 370.237 30.7729 396.998 28.8719C448.736 25.1838 507.184 22.3858 554.123 -3.16715C582.8 -18.788 596.923 -44.4264 591.563 -78.1244C589.187 -93.076 585.487 -105.778 591.563 -120.459C597.72 -135.332 610.546 -145.827 623.535 -153.694C660.86 -176.321 707.245 -183.554 749.269 -188.944C798.567 -195.222 848.236 -197.673 897.875 -196.278C941.35 -195.074 984.616 -208.609 1027.07 -217.53C1083.3 -229.342 1140.55 -239.658 1198.1 -238.099C1243.54 -236.86 1289.35 -227.128 1328.2 -201.261C1367.68 -174.918 1391.41 -135.489 1412.81 -92.9408C1445.16 -28.6205 1485.48 57.5719 1556.45 81.9999C1566.77 85.5598 1576.39 85.9514 1587.04 86.5708C1592.21 86.8698 1598.89 86.9624 1601.45 92.6511C1607.62 106.35 1584.81 132.906 1578.44 142.162C1558.12 171.709 1536.1 199.925 1515.27 229.081C1495.83 256.3 1474.65 284.665 1462.57 316.562C1443.35 367.362 1504.8 397.065 1503.08 445.473C1502.01 475.526 1474.73 497.077 1453.12 511.986C1426.52 530.32 1388.23 542.373 1374.91 575.829C1365 600.749 1380.56 615.252 1392.54 634.162C1412.85 666.201 1414.23 709.632 1412.12 746.719C1409.27 796.835 1398.14 847.692 1379.19 893.757C1370.6 914.639 1360.08 936.362 1344.6 952.581C1330.09 967.781 1316.36 971.676 1296.97 968.565C1237.62 959.024 1177.69 932.432 1120.77 908.68C1049.26 878.834 978.736 845.883 910.316 808.811C863.661 783.528 815.954 756.779 775.003 721.849C764.33 712.743 753.4 702.847 745.596 690.835C739.696 681.808 737.192 674.353 727.248 669.198C697.774 653.926 656.776 657.921 625.196 659.508C574.699 662.036 524.446 668.764 474.261 674.823C444.976 678.383 389.808 689.582 366.423 662.719C346.238 639.523 370.595 599.973 383.037 579.539C414.509 527.863 454.994 482.51 492.556 435.811C509.77 414.409 527.66 392.843 541.877 369.049C545.509 362.983 551.328 354.945 552.327 347.576C553.448 339.131 548.216 332.688 542.923 326.316Z" stroke="#11453B"/>
<path fill-rule="evenodd" clip-rule="evenodd" d="M546.63 338.352C506.794 292.636 458.802 255.079 416.036 212.299C396.86 193.118 377.496 172.996 362.885 149.596C355.026 137.013 346.681 121.174 348.848 105.534C355.067 60.6442 428.601 64.6986 458.309 62.0693C502.452 58.2074 553.165 54.317 592.198 30.1124C617.767 14.2586 627.354 -9.15507 622.581 -39.352C617.456 -71.7436 628.914 -95.2569 654.99 -113.327C687.682 -135.964 728.949 -145.191 766.908 -151.746C812.641 -159.606 858.953 -163.09 905.28 -162.156C950.335 -161.244 993.985 -169.21 1038.74 -174.39C1098.09 -181.252 1159.33 -184.637 1218 -170.571C1269.09 -158.323 1315.23 -131.332 1349.82 -89.5924C1385.95 -46.0284 1403.83 8.85773 1433.17 57.0532C1451.47 87.1147 1476.98 126.881 1511.18 138.566C1522.58 142.464 1543.36 137.205 1534.25 156.38C1529.05 167.345 1519.3 176.964 1511.61 185.928C1499.17 200.414 1486.32 214.501 1473.68 228.787C1446.72 259.24 1417.86 290.342 1397.66 326.403C1372.2 371.805 1410.04 406.748 1405.43 452.784C1402.95 477.559 1386.62 497.331 1369.35 512.865C1358.18 522.925 1345.95 531.64 1333.47 539.77C1320.43 548.263 1305 554.733 1293.63 565.713C1277.43 581.339 1284.46 599.836 1287.5 620.036C1292.85 655.536 1294.02 691.596 1291 727.4C1287.3 771.284 1278.62 816.423 1260.35 856.303C1253.24 871.829 1244.23 888.289 1230.85 898.699C1217.48 909.109 1203.64 908.396 1188.32 905.261C1142.86 895.998 1097.49 874.444 1054.37 854.016C1000.39 828.443 947.479 799.864 896.948 767.351C862.068 744.907 827.073 720.659 797.892 690.227C789.405 681.37 781.33 671.887 774.801 661.299C770.318 654.038 767.914 644.668 761.419 639.21C741.096 622.174 700.294 627.261 676.46 628.251C628.894 630.225 582.077 639.609 534.571 641.889C508.644 643.136 468.038 646.271 448.998 622.979C431.092 601.083 447.31 566.596 458.012 545.498C479.044 504.015 507.3 467.056 532.626 428.494C543.038 412.626 554.448 396.024 561.193 377.905C567.189 361.759 556.838 350.073 546.63 338.352Z" stroke="#11453B"/>
<path fill-rule="evenodd" clip-rule="evenodd" d="M556.427 339.1C524.719 298.871 486.494 263.161 454.557 222.278C435.863 198.335 403.669 158.085 418.126 124.332C433.987 87.2407 489.274 86.2305 521.232 83.2421C559.268 79.6846 603.935 74.825 636.487 51.6654C646.782 44.344 655.552 34.6533 659.269 21.8888C663.25 8.22788 658.898 -3.72541 658.332 -17.4006C657.144 -46.0885 673.376 -69.1201 694.857 -84.9369C725.215 -107.3 763.177 -117.873 799.034 -125.244C839.658 -133.558 880.957 -137.657 922.338 -137.482C961.885 -137.339 1001.01 -138.264 1040.6 -139.332C1092.37 -140.755 1144.87 -138.456 1195.09 -123.949C1244.57 -109.648 1289.54 -82.845 1324.87 -43.4204C1359.34 -4.94922 1382.6 42.0742 1402.96 89.9729C1414.52 117.16 1434.04 157.787 1461.61 171.519C1473.87 177.631 1485.9 177.211 1472.86 193.106C1456.45 213.121 1434.33 229.179 1415.32 246.298C1387.89 271.002 1359.78 296.189 1336.76 325.56C1322.06 344.315 1315.51 362.516 1316.52 386.799C1317.31 405.299 1320.85 423.606 1319.06 442.176C1314.86 485.763 1282.32 515.653 1253.55 543.488C1235.05 561.389 1218.15 575.043 1208.62 600.508C1197.35 630.604 1192.63 663.348 1185.1 694.597C1176.83 728.913 1167.27 764.61 1149.22 794.835C1133.15 821.744 1113.6 833.811 1084.35 826.561C1038.73 815.262 993.755 787.428 953.25 761.678C912.023 735.481 871.504 706.024 837.34 670.015C818.896 650.569 806.307 627.737 789.927 606.847C769.323 580.621 722.712 590.554 695.012 592.774C649.028 596.459 504.339 624.037 517.69 534.715C523.262 497.432 545.208 463.023 561.258 430.123C567.91 416.469 577.537 400.083 579.041 384.437C580.681 367.397 565.96 351.21 556.427 339.1Z" stroke="#11453B"/>
<path fill-rule="evenodd" clip-rule="evenodd" d="M573.169 342.516C548.938 306.061 519.94 271.62 499.148 232.246C485.661 206.747 472.416 172.676 489.815 145.696C509.453 115.249 552.755 108.152 584.573 104.272C617.354 100.278 656.489 96.9181 683.282 73.8319C691.806 66.4782 698.833 56.5617 700.142 44.6876C701.403 33.2976 697.842 21.9075 699.022 10.3111C701.666 -15.7294 716.63 -37.1855 735.924 -52.7471C792.998 -98.7843 877.943 -109.021 946.804 -110.224C981.272 -110.822 1016.74 -107.683 1051.43 -105.433C1096.45 -102.515 1141.53 -96.25 1184.46 -81.1511C1275.74 -49.0596 1336.92 22.114 1379.65 110.679C1393.1 138.556 1403.39 168.718 1424.46 191.121C1435.33 202.689 1432.95 210.997 1421.85 221.547C1404.48 238.034 1383.3 250.634 1364.03 264.395C1336.61 283.964 1308.61 303.825 1284.37 327.268C1267.66 343.427 1255.79 358.996 1252.19 383.228C1249.62 400.506 1250.22 418.11 1248.68 435.494C1245.74 468.518 1235.67 501.293 1217.85 528.686C1203.68 550.399 1186.82 570.132 1169.4 588.947C1146.75 613.443 1127.59 638.33 1110.38 667.403C1087.58 705.887 1055.53 776.875 1001.81 758.089C942.556 737.359 887.02 684.687 849.005 633.653C836.239 616.518 825.759 595.503 808.542 582.867C782.767 563.981 756.615 564.643 725.957 564.722C680.058 564.828 580.182 575.343 579.103 502.788C578.678 474.043 590.467 446.863 596.111 419.214C602.477 388.247 589.718 367.361 573.169 342.516Z" stroke="#11453B"/>
<path fill-rule="evenodd" clip-rule="evenodd" d="M591.216 345.766C567.249 298.253 513.504 220.179 554.381 167.345C575.973 139.423 614.165 128.931 646.202 122.678C671.984 117.62 703.077 115.72 722.557 94.2793C736.876 78.5151 730.52 55.5731 736.005 35.8394C742.814 11.3751 758.441 -8.64318 777.645 -23.6889C831.308 -65.7386 905.923 -78.643 970.477 -81.3889C1037.52 -84.2345 1111.39 -70.9246 1174.48 -45.322C1253.15 -13.3881 1312.08 47.0792 1353.29 123.652C1360.9 137.787 1367.81 152.292 1375.11 166.598C1380.01 176.195 1387.29 185.478 1391.15 195.573C1397.59 212.404 1390.01 226.162 1377.85 237.132C1360.36 252.924 1338.87 264.164 1318.93 276.016C1291.67 292.235 1263.79 308.163 1238.43 327.192C1221.38 339.997 1203.54 353.791 1197.44 376.007C1193.28 391.16 1192.42 407.208 1192.57 422.901C1192.89 456.55 1191.22 483.76 1176.33 514.577C1151.84 565.17 1114.17 610.663 1074.38 648.516C1043.15 678.223 993.742 724.37 948.243 704.508C907.421 686.724 883.541 644.155 856.645 609.738C843.568 593.007 828.879 577.726 811.619 565.825C789.858 550.822 769.372 544.526 743.59 542.072C700.196 537.939 634.765 536.864 621.351 481.946C616.398 461.679 619.225 440.686 616.627 420.155C613.233 393.009 603.308 369.733 591.216 345.766Z" stroke="#11453B"/>
<path fill-rule="evenodd" clip-rule="evenodd" d="M616.138 347.526C599.071 295.537 576.65 230.017 617.871 183.812C637.838 161.428 665.923 148.915 693.104 139.565C712.572 132.863 743.483 130.89 755.418 110.287C764.184 95.1251 765.398 74.2087 773.328 57.964C784.225 35.6303 800.732 17.2349 820.099 2.8348C870.551 -34.6895 936.263 -49.1893 996.19 -53.3413C1126.4 -62.3503 1258.89 9.40105 1328.57 127.451C1349.34 162.639 1376.16 200.092 1342.59 236.042C1305.93 275.262 1250.71 293.636 1206.96 321.503C1190.24 332.143 1168.94 344.933 1159.62 364.198C1154.01 375.778 1153.62 390.306 1153.37 403.054C1152.69 435.522 1150.14 464.721 1137.76 495.016C1118.65 541.834 1088.18 585.028 1053.65 620.408C1023.53 651.26 980.586 687.516 936.85 665.275C903.316 648.183 882.048 611.905 855.993 585.163C826.997 555.38 791.137 535.311 751.757 525.504C713.449 515.99 671.432 509.573 651.243 469.15C644.318 455.284 637.082 437.33 634.486 421.983C630.295 396.679 624.159 371.777 616.138 347.526Z" stroke="#11453B"/>
<path fill-rule="evenodd" clip-rule="evenodd" d="M643.926 347.892C636.031 295.395 635.153 240.655 671.838 199.279C688.959 179.976 710.601 166.263 732.486 153.838C748.588 144.695 765.216 136.984 777.241 121.996C788.383 108.119 796.852 92.0059 807.609 77.7655C821.799 58.8939 838.777 42.5574 857.892 29.3837C905.806 -3.57571 964.092 -18.9911 1019.85 -24.3383C1046.85 -26.9372 1076.13 -28.29 1102.94 -21.2054C1128.83 -14.37 1154.44 -3.5615 1178.25 9.04127C1228.86 35.8061 1272.72 75.0029 1304.52 124.56C1326.33 158.551 1338.12 191.603 1309.88 226.087C1278.05 264.956 1228.14 286.402 1187 311.629C1158.78 328.931 1127.16 345.891 1121.89 382.66C1117.69 411.917 1114.28 439.686 1103.43 467.341C1087.27 508.132 1063.51 545.083 1033.55 576.002C1006.16 604.17 971.508 628.072 932.327 613.027C901.284 601.087 877.199 574.336 850.077 555.211C819.851 533.851 786.642 522.074 751.672 512.604C720.244 504.06 690.652 490.93 670.34 463.054C666.183 457.358 661.816 451.156 658.611 444.784C654.521 436.653 654.839 428.593 654.036 419.479C651.944 395.427 647.496 371.652 643.926 347.892Z" stroke="#11453B"/>
<path fill-rule="evenodd" clip-rule="evenodd" d="M674.566 343.601C675.24 293.736 686.606 246.61 717.736 207.75C731.044 191.126 746.936 177.433 761.58 162.2C773.371 149.919 784.514 138.508 798.072 128.389C830.233 104.426 856.371 73.4177 890.55 52.0797C936.175 23.553 988.437 7.78494 1040.29 1.48054C1065.62 -1.60034 1091.77 -2.67723 1117.39 0.803032C1139.4 3.7912 1160.47 14.2819 1180.02 25.015C1218.33 46.0392 1255.53 75.9209 1280.41 113.726C1335.25 197.074 1227.12 257.672 1171.62 293.159C1146.09 309.483 1107.09 328.389 1096.64 360.724C1089.16 383.824 1084.61 407.315 1074.99 429.702C1049.13 489.822 996.646 560.532 926.704 551.118C896.776 547.096 869.498 530.758 841.559 519.789C812.79 508.492 783.097 502.195 753.196 495.285C725.25 488.83 702.977 479.645 684.927 455.019C676.299 443.259 677.062 429.181 676.293 414.754C675.038 391.055 674.262 367.221 674.566 343.601Z" stroke="#11453B"/>
<path fill-rule="evenodd" clip-rule="evenodd" d="M702.466 337.214C713.702 261.948 755.434 179.779 816.797 136.068C888.977 84.6497 967.174 41.3517 1053.41 28.9046C1093.4 23.133 1137.2 20.2934 1174.92 39.1669C1203.64 53.5212 1236.99 74.9781 1252.79 105.153C1291.45 178.96 1205.46 237.716 1156.47 271.861C1130.09 290.244 1096.52 308.157 1076.64 335.001C1065.1 350.565 1059.21 371.154 1049.9 388.248C1021.68 440.05 975.23 481.832 917.366 489.305C890.611 492.757 863.661 488.487 837.109 485.092C809.929 481.619 782.412 479.733 755.4 474.887C733.839 471.015 708.428 464.461 700.487 440.114C690.473 409.434 697.88 367.951 702.466 337.214Z" stroke="#11453B"/>
<path fill-rule="evenodd" clip-rule="evenodd" d="M729.824 325.123C746.212 254.36 780.914 185.335 839.252 143.091C870.188 120.691 906.101 105.227 940.58 89.9495C979.663 72.6345 1020.5 59.1942 1062.2 52.5274C1114.13 44.2225 1198.23 36.7366 1225.36 99.1661C1252.29 161.133 1184.25 215.977 1144.01 247.231C1118.21 267.252 1090.6 285.628 1065.95 307.516C1052.58 319.382 1042.29 333.093 1030.98 347.011C999.715 385.573 955.149 416.1 909.725 432.397C865.699 448.194 811.236 455.189 764.763 449.968C744.711 447.724 730.379 440.153 724.314 418.629C715.911 388.707 723.05 354.354 729.824 325.123Z" stroke="#11453B"/>
<path fill-rule="evenodd" clip-rule="evenodd" d="M757.01 306.064C773.29 243.76 808.404 186.854 859.624 149.46C917.038 107.541 990.969 84.2478 1058.92 72.4026C1095.04 66.1112 1173.31 49.0528 1191.72 97.8733C1210.13 146.694 1156.91 194.805 1126.28 221.29C1089.1 253.385 1049.02 284.374 1008.98 313.171C974.197 338.209 937.08 363.808 899.403 383.143C878.154 394.112 856.018 403.068 833.259 409.904C816.406 414.926 794.976 422.416 777.307 418.678C732.741 409.238 749.224 335.855 757.01 306.064Z" stroke="#11453B"/>
<path fill-rule="evenodd" clip-rule="evenodd" d="M790.567 287.407C826.287 169.583 939.459 111.635 1048.42 91.4364C1073.75 86.7479 1144.73 69.8437 1158.88 105.836C1172.6 140.733 1128.98 182.119 1108.56 201.726C1045.28 262.485 967.098 307.534 893.016 352.164C869.892 366.094 828.187 396.324 799.503 382.38C768.36 367.211 783.167 311.839 790.567 287.407Z" stroke="#11453B"/>
<path fill-rule="evenodd" clip-rule="evenodd" d="M827.155 264.729C858.219 177.96 948.571 128.195 1031.64 111.789C1051.99 107.775 1103.66 95.2767 1119.07 119.49C1133.33 141.889 1099.3 174.345 1086.57 187.241C1058.22 215.96 1024.63 239.619 991.442 262.359C960.756 283.398 929.739 304.964 897.452 322.758C880.445 332.124 848.55 352.11 829.224 337.647C808.418 322.089 820.258 283.996 827.155 264.729Z" stroke="#11453B"/>
<path fill-rule="evenodd" clip-rule="evenodd" d="M867.474 239.378C891.151 182.715 954.563 145.919 1010.5 133.692C1025.55 130.409 1058.08 121.892 1070.78 137.025C1082.47 150.961 1063.63 171.392 1055.27 180.828C1018.21 222.651 963.945 260.009 914.225 282.953C901.724 288.721 879.252 300.044 866.392 288.401C853.201 276.444 862.036 252.389 867.474 239.378Z" stroke="#11453B"/>
<path fill-rule="evenodd" clip-rule="evenodd" d="M910.247 215.576C923.588 187.439 958.457 166.211 987.342 159.453C1007.67 154.702 1032.1 158.806 1014.39 183.299C996.789 207.604 964.134 229.803 936.457 239.644C915.34 247.149 898.79 239.745 910.247 215.576Z" stroke="#11453B"/>
<path fill-rule="evenodd" clip-rule="evenodd" d="M-171.646 410.456C-172.502 354.868 -200.496 297.096 -186.671 240.454C-175.318 193.935 -118.163 190.051 -83.8753 168.975C-56.6284 152.231 -41.1656 122.57 -26.4305 94.1104C-13.1911 68.5603 -1.29925 42.242 12.6476 17.1116C21.676 0.865417 37.1792 -31.0366 56.7587 -31.6128C75.5027 -32.1676 92.6903 -7.30747 103.578 7.38809C117.774 26.5435 130.36 46.9651 144.145 66.4264C167.377 99.2531 195.25 123.551 227.166 146.548C263.486 172.714 300.406 197.987 337.925 222.366C365.55 240.369 393.362 258.237 419.915 278.018C436.571 290.431 473.331 313.719 473.5 336.601C473.58 347.52 463.777 359.612 457.168 368.34C445.983 383.114 433.236 396.621 420.448 409.837C396.63 434.456 371.802 457.957 347.244 481.743C315.368 512.614 284.921 542.979 256.899 578.025C227.927 614.302 200.249 651.774 172.005 688.733C152.877 713.771 133.769 741.889 106.179 757.253C71.6218 776.458 43.2565 756.207 8.30856 755.973C-21.7546 755.766 -19.5379 682.246 -23.3582 661.803C-27.1918 641.111 -35.6408 621.849 -38.9153 601.107C-42.9983 575.216 -43.0522 548.727 -44.0561 522.558C-45.2756 490.549 -45.7607 460.077 -78.1753 447.871C-96.6228 440.936 -116.58 439.477 -135.674 435.323C-148.044 432.628 -171.376 428.018 -171.646 410.456Z" stroke="#11453B"/>
<path fill-rule="evenodd" clip-rule="evenodd" d="M-156.866 400.567C-160.018 353.971 -178.635 294.33 -161.03 246.23C-145.989 205.126 -98.95 199.797 -67.2758 178.205C-41.128 160.395 -29.488 131.252 -16.4175 102.621C-5.93141 79.654 4.23755 56.4659 16.1407 34.2325C24.9128 17.8477 38.3073 -9.81401 56.5466 -13.2049C72.9438 -16.2539 90.5286 8.16646 99.7326 20.5904C113.161 38.7276 124.645 58.425 136.508 77.7091C157.352 111.583 178.695 142.044 209.202 166.928C239.844 191.918 273.367 210.604 307.248 230.052C333.753 245.268 360.124 260.926 385.307 278.494C404.066 291.573 431.037 308.314 439.62 331.637C446.415 350.088 411.954 380.706 401.792 391.513C380.873 413.732 358.707 434.591 336.5 455.321C309.428 480.582 281.492 502.673 257.584 531.489C214.823 583.008 179.08 647.165 124.058 685.456C90.8727 708.551 53.9419 714.457 17.0314 711.002C2.41564 709.634 -1.09321 687.857 -2.93536 675.155C-5.99887 654.054 -6.38351 632.59 -8.73849 611.404C-10.945 591.571 -15.8439 572.729 -19.7914 553.281C-23.7861 533.576 -24.9063 513.387 -27.8483 493.548C-29.6702 481.23 -31.4719 466.897 -39.441 456.995C-47.6869 446.744 -61.2905 442.448 -73.1801 439.186C-95.5086 433.116 -154.64 433.451 -156.866 400.567Z" stroke="#11453B"/>
<path fill-rule="evenodd" clip-rule="evenodd" d="M-137.844 381.061C-143.144 338.289 -150.564 285.015 -128.973 245.608C-111.326 213.386 -73.6879 206.436 -46.8047 185.441C-24.4448 167.982 -15.9991 140.214 -4.90018 114.409C4.20716 93.2438 13.3618 71.9857 24.3999 51.8445C32.7714 36.5697 43.5598 15.8592 60.1812 10.5305C74.3924 5.97719 90.4467 26.3746 98.3253 36.527C111.74 53.8295 122.677 73.2164 133.539 92.3473C151.309 123.651 167.66 157.089 192.95 182.552C217.524 207.261 246.716 221.846 276.455 238.245C299.234 250.809 321.87 263.857 343.332 278.84C359.812 290.337 380.234 303.961 388.822 323.092C396.248 339.591 377.183 359.12 367.657 370.759C351.927 389.969 334.468 407.591 317.253 425.285C298.673 444.373 278.096 461.982 260.117 481.539C222.311 522.697 192.106 568.265 145.509 599.797C115.332 620.223 74.7232 638.777 39.05 635.441C13.3955 633.036 15.0833 573.117 12.6191 553.972C8.56843 522.668 0.743798 489.778 -11.6851 460.943C-22.3587 436.234 -47.7229 428.615 -71.055 423.072C-85.6713 419.593 -100.99 417.715 -115.127 412.337C-131.492 406.104 -135.623 398.99 -137.844 381.061Z" stroke="#11453B"/>
<path fill-rule="evenodd" clip-rule="evenodd" d="M-120.101 361.012C-123.256 324.85 -122.547 282.088 -102.107 250.807C-84.1947 223.407 -52.3021 216.193 -29.6192 194.609C-11.9161 177.77 -4.96323 150.313 4.55725 128.043C16.1926 100.815 32.4971 50.5249 61.8491 40.2785C89.1537 30.7528 117.708 91.6031 127.594 109.748C143.243 138.468 156.331 169.963 175.311 196.486C191.656 219.319 213.555 231.941 236.799 245.505C266.435 262.83 311.429 283.373 327.274 317.137C339.085 342.296 300.679 379.7 287.563 397.132C273.847 415.341 263.516 436.925 249.36 454.493C227.022 482.213 190.825 504.533 160.939 521.565C131.884 538.133 94.1538 556.471 61.1936 555.379C39.531 554.666 35.4093 519.36 30.7876 502.114C24.1658 477.597 15.3616 455.627 -3.55103 438.952C-22.8014 421.977 -45.4911 413.978 -69.343 406.978C-81.5865 403.411 -95.553 400.628 -106.506 393.421C-118.608 385.579 -118.885 374.912 -120.101 361.012Z" stroke="#11453B"/>
<path fill-rule="evenodd" clip-rule="evenodd" d="M-98.4819 340.169C-98.3068 308.928 -91.5381 275.613 -71.4678 251.515C-54.7515 231.442 -28.5861 224.732 -12.5837 204.213C0.0915565 187.967 6.54369 165.161 15.0298 146.296C25.4084 123.177 40.084 82.7906 65.8925 74.7673C91.0814 66.957 113.361 111.44 123.019 129.042C137.162 154.851 148.612 182.209 162.883 207.947C174.063 228.14 187.735 241.155 205.94 254.17C227.31 269.457 257.126 286.391 268.542 311.682C276.772 329.994 256.85 359.254 249.617 375.386C244.767 386.221 240.329 397.227 237.891 408.97C235.992 418.116 235.803 426.579 230.301 434.432C216.447 454.185 186.072 456.762 165.463 463.273C138.092 471.914 109.05 481.734 80.4064 483.609C62.8011 484.78 53.8167 467.661 43.768 455.619C31.8942 441.383 15.0837 431.145 0.401367 420.402C-18.9752 406.201 -40.0625 397.369 -61.8772 388.323C-71.717 384.24 -83.2742 380.236 -90.8983 372.12C-98.859 363.706 -98.5425 351.444 -98.4819 340.169Z" stroke="#11453B"/>
<path fill-rule="evenodd" clip-rule="evenodd" d="M-75.7756 321.622C-72.2968 295.384 -61.4558 270.306 -43.1449 251.758C-29.1084 237.517 -10.4671 229.499 0.798553 212.389C11.2956 196.44 18.6106 178.304 27.2806 161.251C36.4563 143.222 50.0883 113.089 71.2511 108.183C94.0588 102.9 111.628 133.297 121.357 150.143C133.647 171.433 142.985 194.339 153.974 216.362C162.253 232.777 172.813 247.79 185.303 260.9C198.403 274.721 216.168 287.957 222.795 306.962C228.653 323.794 217.691 344.158 215.756 361.226C213.687 379.461 217.314 398.614 205.839 414.272C182.175 446.563 122.786 440.574 88.8339 441.265C55.3335 441.977 28.3998 422.218 1.29071 403.421C-16.6157 391.01 -35.2637 380.5 -53.6218 368.937C-72.3372 357.138 -78.8364 344.713 -75.7756 321.622Z" stroke="#11453B"/>
<path fill-rule="evenodd" clip-rule="evenodd" d="M-54.6792 306.604C-44.3916 268.592 -12.2607 248.389 10.7093 219.663C29.5035 196.146 43.5958 147.445 75.2478 141.003C111.183 133.691 132.696 198.22 145.19 223.119C159.053 250.734 183.743 273.196 194.01 302.428C199.407 317.771 194.772 332.088 191.899 347.424C188.748 364.264 186.381 381.481 175.506 395.035C154.101 421.709 112.297 421.524 82.1894 422.258C51.0231 423.02 23.4524 404.741 -1.37946 386.498C-27.7156 367.178 -65.2164 345.585 -54.6792 306.604Z" stroke="#11453B"/>
<path fill-rule="evenodd" clip-rule="evenodd" d="M-37.4486 296.297C-25.8564 269.215 -1.49654 247.197 18.27 226.413C34.7681 209.085 52.5165 174.203 77.6714 171.717C107.236 168.784 125.154 206.032 136.787 228.871C148.237 251.313 164.735 275.009 171.075 299.641C177.686 325.299 160.08 359.855 143.29 378.011C124.563 398.258 93.9249 405.738 67.6353 404.931C40.1089 404.109 14.8521 387.376 -5.99478 370.021C-28.2822 351.467 -50.9297 327.736 -37.4486 296.297Z" stroke="#11453B"/>
<path fill-rule="evenodd" clip-rule="evenodd" d="M-21.4603 291.198C-10.3874 268.673 8.80667 249.618 26.5043 232.621C40.1619 219.499 60.3149 197.187 80.019 196.64C101.696 196.037 120.067 214.766 128.684 233.963C137.179 252.897 146.13 276.636 147.402 297.408C150.164 342.643 93.9418 393.314 51.7245 389.191C11.6973 385.281 -43.5382 336.078 -21.4603 291.198Z" stroke="#11453B"/>
<path fill-rule="evenodd" clip-rule="evenodd" d="M-6.6741 288.714C8.60164 259.366 45.7067 217.525 80.0584 216.532C119.488 215.396 129.387 261.957 124.247 295.699C119.026 330.136 73.566 379.983 37.3176 373.247C1.93933 366.675 -24.7779 323.521 -6.6741 288.714Z" stroke="#11453B"/>
<path fill-rule="evenodd" clip-rule="evenodd" d="M8.93792 283.969C21.8714 259.396 49.4704 228.703 78.2556 227.774C112.554 226.674 111.907 265.984 104.129 290.451C96.0416 315.854 60.4224 359.241 30.3903 352.391C1.18729 345.703 -3.45636 307.521 8.93792 283.969Z" stroke="#11453B"/>
<path fill-rule="evenodd" clip-rule="evenodd" d="M22.5356 281.141C31.0726 263.607 52.4387 241.446 72.7504 240.737C97.5772 239.884 92.7511 271.063 86.3366 286.112C78.7121 304.018 53.1552 335.133 31.708 330.09C10.592 325.126 15.4925 295.588 22.5356 281.141Z" stroke="#11453B"/>
<path fill-rule="evenodd" clip-rule="evenodd" d="M1190.43 1282.97C1135.48 1318.15 1073.36 1347.19 1014.78 1376.71C929.169 1419.83 842.3 1461.8 752.348 1493.93C704.121 1511.15 641.628 1535.97 589.881 1522.48C570.961 1517.55 553.707 1502.64 536.743 1492.94C513.352 1479.58 489.616 1466.88 465.921 1454.15C418.388 1428.63 370.708 1403.37 323.992 1376.22C301.497 1363.14 279.67 1346.67 256.251 1335.51C242.566 1328.99 226.189 1332.04 211.565 1332.45C177.692 1333.42 143.839 1335.24 109.985 1336.79C68.5776 1338.68 27.0754 1340.69 -14.3795 1339.95C-33.0767 1339.61 -78.8687 1343.11 -89.1616 1326.11C-94.6993 1316.96 -81.6477 1300.46 -75.5974 1292.83C-64.4884 1278.8 -51.7199 1266.15 -39.1202 1253.64C-9.98171 1224.69 20.9644 1197.12 46.8654 1164.79C60.1733 1148.17 77.6092 1127.86 68.9216 1105.17C60.1531 1082.25 44.9632 1062.41 35.6956 1039.57C25.0249 1013.28 20.6002 985.929 15.5616 958.057C11.8316 937.458 3.14406 919.206 -5.02417 900.215C-14.049 879.224 -23.3977 858.056 -29.6638 835.919C-33.8053 821.297 -40.4895 794.991 -26.0012 785.734C-5.41539 772.57 33.1864 783.229 56.6523 787.107C89.0824 792.458 121.276 799.274 153.619 805.145C177.098 809.414 200.659 814.096 224.529 814.594C263.01 815.398 301.618 812.616 339.998 810.026C411.063 805.23 481.619 798.726 552.925 798.726C615.396 798.726 759.761 874.983 793.554 888.41C861.004 915.215 930.248 940.624 994.076 976.287C1011.34 985.943 1037.92 998.808 1047 1018.68C1052.61 1030.93 1050.03 1038.01 1063.25 1045.9C1081.29 1056.66 1104.4 1060.89 1124.36 1065.71C1156.52 1073.46 1188.92 1080.03 1221.22 1087.05C1286.55 1101.22 1351.44 1117.25 1416.5 1132.66C1436.17 1137.33 1459.97 1138.36 1478.72 1146.57C1490.81 1151.84 1489.55 1158.48 1480.2 1166.49C1463.79 1180.55 1440.79 1188.36 1421.4 1196.38C1393 1208.13 1364.13 1218.61 1335.25 1228.94C1306.36 1239.27 1277.33 1249.28 1248.44 1259.63C1229.35 1266.45 1207.58 1271.99 1190.43 1282.97Z" stroke="#11453B"/>
<path fill-rule="evenodd" clip-rule="evenodd" d="M1145.21 1275.23C1087.08 1310.49 1022.56 1338.57 960.357 1365.97C880.749 1401.05 799.339 1433.94 715.46 1455.87C666.211 1468.74 608.103 1482.95 557.781 1468.19C539.829 1462.93 526.417 1451.09 511.028 1440.64C493.487 1428.72 475.272 1417.8 457.056 1407.05C419.559 1384.91 381.667 1363.54 343.378 1342.91C323.098 1331.95 300.774 1317.26 277.863 1313.46C259.648 1310.43 238.956 1314.81 220.66 1316.09C187.71 1318.38 154.767 1320.75 121.804 1322.76C83.7669 1325.07 45.6224 1327.21 7.50476 1326.84C-13.7399 1326.63 -50.2114 1330.05 -65.2358 1315.56C-78.3442 1302.92 -30.6197 1257.2 -22.2271 1248.51C3.98302 1221.39 31.5492 1195.57 55.9445 1166.57C70.3617 1149.47 87.916 1128.67 93.9946 1106C99.1692 1086.68 89.1844 1064.67 83.288 1046.81C75.9141 1024.45 69.9637 1001.26 61.3956 979.362C53.7654 959.852 41.6216 942.472 30.9554 924.736C19.2233 905.226 7.34277 885.395 -1.36694 864.111C-6.7034 851.014 -15.5345 829.081 -4.92908 816.597C7.32253 802.203 45.0894 811.609 60.613 813.661C92.1056 817.88 123.355 824.15 154.632 829.765C206.58 839.086 256.106 847.237 309.005 845.285C377.893 842.734 446.714 836.734 515.589 833.413C541.023 832.174 566.862 829.68 592.317 831.026C606.909 831.803 618.021 836.506 626.508 847.116C638.098 861.596 664.794 869.612 683.36 877.921C712.309 890.868 741.623 902.91 770.855 915.11C835.028 941.902 900.435 967.726 961.295 1002.38C980.549 1013.34 1002.6 1025.56 1016.84 1043.66C1024.79 1053.76 1022.78 1063.49 1027.63 1074.22C1034.06 1088.34 1055.17 1094.71 1067.79 1099.32C1092.16 1108.24 1117.52 1114.22 1142.68 1119.82C1199.62 1132.49 1256.7 1140.82 1314.56 1146.96C1328.12 1148.38 1381.52 1153.32 1353.47 1177.12C1322.49 1203.42 1277.75 1216.31 1241.27 1231.13C1208.41 1244.46 1175.52 1256.86 1145.21 1275.23Z" stroke="#11453B"/>
<path fill-rule="evenodd" clip-rule="evenodd" d="M1064.88 1268.72C1010.24 1299.73 949.714 1322.86 890.869 1345C819.462 1371.86 746.265 1395.8 671.372 1409.21C624.326 1417.62 572.457 1424.09 525.728 1410.1C493.817 1400.56 469.132 1374.74 441.104 1356.99C413.076 1339.23 383.913 1322.56 353.879 1308.66C335.239 1300.04 315.187 1291.35 294.446 1292.49C244.016 1295.25 193.647 1301.83 143.162 1305.03C109.765 1307.16 76.3004 1308.92 42.8019 1308.39C22.6014 1308.08 -5.14978 1309.36 -23.0337 1298.15C-42.8019 1285.75 62.4552 1179.87 72.4034 1167.95C97.345 1138.07 127.548 1098.42 122.726 1055.92C118.113 1015.3 98.1217 984.968 75.5101 953.137C62.678 935.031 21.5275 886.659 36.7775 863.11C45.4898 849.65 74.2067 854.31 87.8492 855.227C114.736 857.034 141.474 860.919 168.219 864.291C207.215 869.179 247.285 876.727 286.45 878.94C313.721 880.477 341.155 878.421 368.474 878.378C407.646 878.321 446.817 878.634 485.989 879.004C518.88 879.317 552.047 879.004 584.823 882.334C605.199 884.383 620.665 888.986 635.281 901.991C647.998 913.303 667.185 919.927 683.394 927.12C710.166 938.994 737.289 950 764.324 961.184C820.927 984.605 878.179 1007.53 932.357 1036.8C957.089 1050.16 998.672 1068.85 1004.47 1101.23C1006.57 1112.91 1008.11 1117.95 1018.91 1124.59C1034.25 1134.01 1052.62 1138.26 1069.83 1141.95C1109.95 1150.56 1151.23 1149.27 1191.28 1157.78C1207.59 1161.29 1228.88 1168.86 1210.26 1186.19C1188.53 1206.46 1156.91 1217.6 1130.88 1230.12C1117.88 1236.37 1104.5 1242.21 1092.16 1249.84C1082.68 1255.72 1074.57 1263.25 1064.88 1268.72Z" stroke="#11453B"/>
<path fill-rule="evenodd" clip-rule="evenodd" d="M961.394 1259.03C910.915 1284.22 856.094 1302.54 802.257 1319.05C742.46 1337.36 681.219 1352.53 619.169 1358.98C576.324 1363.45 530.673 1364.77 489.089 1351.09C462.791 1342.43 444.962 1324.22 422.332 1308.95C388.179 1285.88 351.227 1267.59 310.195 1272.04C264.194 1277.02 218.042 1280.75 171.739 1283.25C143.81 1284.75 115.772 1285.88 87.8083 1284.83C70.128 1284.17 47.3499 1283.07 31.969 1274.62C11.3891 1263.3 88.6917 1177.18 98.3275 1164.63C122.225 1133.5 139.744 1100.84 149.979 1062.27C158.327 1030.8 141.274 1006.06 123.682 982.516C112.744 967.897 77.4038 931.127 88.4692 912.143C94.538 901.673 114.538 902.215 125.28 901.681C145.752 900.668 166.311 901.723 186.783 902.187C217.012 902.9 249.19 898.001 279.163 901.944C345.589 910.673 411.847 918.233 478.684 924.216C515.528 927.511 552.595 930.506 589.109 936.86C602.217 939.142 615.757 941.56 628.178 946.723C636.169 950.039 640.525 955.688 647.268 960.323C679.419 982.388 721.388 993.741 757.598 1007.88C805.737 1026.68 854.132 1045.19 900.989 1067.4C925.635 1079.08 960.059 1092.5 977.018 1116.34C982.142 1123.54 979.958 1129.3 983.181 1136.23C986.889 1144.22 998.157 1146.6 1005.43 1148.82C1021.95 1153.88 1091.07 1161.52 1059.22 1191.18C1044.02 1205.31 1024.65 1214.38 1007.52 1225.48C1001.31 1229.5 995.264 1233.55 990.092 1238.97C981.441 1248.07 972.918 1253.26 961.394 1259.03Z" stroke="#11453B"/>
<path fill-rule="evenodd" clip-rule="evenodd" d="M851.13 1248.13C751.479 1288.88 634.692 1316.64 526.047 1311.26C489.917 1309.47 451.044 1303.48 419.726 1282.97C401.259 1270.86 386.502 1257.19 364.319 1252.82C348.305 1249.66 331.061 1253.24 314.953 1254.54C291.621 1256.42 268.276 1258.1 244.91 1259.46C215.943 1261.12 186.881 1262.41 157.86 1261.72C137.123 1261.23 108.487 1261.79 90.4733 1250.03C68.9659 1236.01 123.711 1170.24 131.414 1158.52C150.083 1130.11 163.171 1102.59 167.901 1068.36C169.293 1058.38 173.983 1048.16 173.374 1038.11C172.739 1027.84 166.746 1018.7 161.212 1010.63C153.975 1000.05 128.866 974.956 136.056 962.054C140.029 954.93 154.941 954.032 162.671 952.522C177.172 949.672 191.882 948.14 206.47 945.875C231.221 942.013 255.796 929.439 280.634 929.795C347.427 930.735 415.185 952.593 480.64 964.598C519.553 971.758 558.73 978.255 597.17 987.951C609.333 991.022 621.86 994.199 633.421 999.407C641.489 1003.04 646.672 1009.52 654.145 1013.59C682.801 1029.21 715.755 1038.69 746.526 1049.21C786.473 1062.89 826.555 1076.15 866.225 1090.71C891.091 1099.84 923.065 1107.87 944.491 1124.8C960.14 1137.16 949.444 1140.86 941.187 1152.37C936.971 1158.24 937.944 1164.02 936.112 1170.67C933.498 1180.16 926.105 1186.99 919.173 1193.13C909.612 1201.62 896.875 1208.61 889.057 1219.01C886.3 1222.67 886.429 1227.22 884.199 1230.41C877.712 1239.71 860.502 1244.29 851.13 1248.13Z" stroke="#11453B"/>
</g>
</g>
</g>
</svg>
