<svg width="1512" height="796" viewBox="0 0 1512 796" fill="none" xmlns="http://www.w3.org/2000/svg">
<g opacity="0.08">
<path fill-rule="evenodd" clip-rule="evenodd" d="M503.337 -60.5438C503.229 -84.9615 460.155 -112.42 441.755 -126.576C405.374 -154.576 367.536 -180.432 330.049 -206.701C292.561 -232.971 254.973 -259.169 219.226 -288.008C196.016 -306.729 168.744 -327.815 153.002 -354.547C119.469 -411.514 225.197 -403.055 252.584 -404.301C322.256 -407.484 402.169 -406.031 467.475 -435.697C506.46 -453.407 522.006 -483.108 513.633 -526.397C510.934 -540.475 502.945 -556.675 509.713 -570.39C516.939 -585.038 533.564 -593.49 547.362 -599.158C597.689 -619.809 655.553 -622.202 708.802 -624.794C766.22 -627.642 824.179 -626.809 881.193 -627.03C905.368 -627.122 930.616 -636.287 953.637 -643.736C983.817 -653.499 1013.64 -664.465 1043.57 -675.068C1109.42 -698.339 1177.27 -722.849 1246.93 -728.76C1290.56 -732.463 1338.24 -727.457 1372.13 -695.249C1389.15 -679.077 1398.05 -655.037 1407.89 -633.681C1419.8 -607.882 1431.24 -581.833 1443.91 -556.44C1484.76 -474.656 1543.06 -394.737 1637.71 -390.721C1652.02 -390.116 1666.09 -392.088 1680.34 -392.459C1689.41 -392.686 1697.49 -390.372 1700.86 -380.353C1709.34 -355.223 1682.68 -315.552 1671.75 -295.614C1647.82 -251.969 1620.83 -210.283 1595.55 -167.515C1578.82 -139.23 1549.87 -100.578 1549.57 -66.2121C1549.3 -35.592 1587.89 -13.4601 1608.9 1.62209C1628.59 15.7429 1664.26 35.5036 1666.42 64.2295C1667.47 78.1581 1658.77 89.7012 1649.68 98.6593C1633.75 114.325 1615.39 125.377 1601.06 143.251C1577.56 172.575 1557.93 212.922 1561.12 252.436C1563.33 279.816 1578.14 297.747 1596.97 314.887C1604.88 322.093 1611.31 327.192 1611.72 338.892C1612.4 357.47 1605.5 377.131 1599.82 394.357C1579.5 456.003 1550.63 515.612 1518.53 571.27C1502.48 599.084 1485.15 626.813 1463.87 650.54C1449.94 666.121 1431.15 684.664 1409.9 684.643C1385.29 684.643 1359.25 675.271 1335.33 668.264C1290.66 655.169 1246.53 640.03 1202.57 624.499C1100.91 588.567 1000.21 549.724 900.463 507.972C830.204 478.512 758.454 449.01 692.4 409.845C679.517 402.154 667.358 393.186 656.086 383.063C644.042 372.431 629.097 367.675 613.943 364.128C519.887 342.118 416.844 359.016 322.397 369.612C298.424 372.296 274.452 374.995 250.411 376.875C229.745 378.491 205.003 383.127 184.917 376.163C145.338 362.455 179.937 311.932 194.565 291.345C246.066 218.861 312.513 157.535 374.101 94.9279C403.384 65.1125 432.889 35.3754 460.58 3.87229C474.998 -12.5059 503.431 -39.1382 503.337 -60.5438Z" stroke="#EA4E4B"/>
<path fill-rule="evenodd" clip-rule="evenodd" d="M521.084 -64.6599C505.299 -90.4976 477.603 -109.595 454.613 -127.567C421.529 -153.44 387.405 -177.876 353.795 -203.016C322.014 -226.789 290.166 -250.833 260.735 -277.831C242.788 -294.295 220.271 -313.982 211.771 -338.332C193.331 -391.111 292.529 -383.104 317.018 -384.484C377.899 -387.901 446.923 -388.684 503.246 -416.472C538.416 -433.825 552.865 -462.602 545.364 -502.555C542.771 -516.377 538.099 -528.179 544.014 -541.93C550.853 -557.846 566.585 -567.768 581.007 -574.772C626.183 -596.716 679.583 -601.378 728.554 -605.257C779.145 -609.265 831.857 -612.09 880.821 -609.158C900.401 -607.991 922.939 -614.617 942.316 -619.699C972.132 -627.529 1001.64 -636.562 1031.31 -644.961C1091.61 -662.043 1153.47 -678.5 1216.19 -680.372C1261.47 -681.724 1308.69 -674.393 1346.37 -646.057C1384.55 -617.322 1401.49 -572.779 1422.66 -530.435C1459.23 -457.228 1508.62 -368.22 1593.22 -352.753C1606.05 -350.404 1618.38 -351.678 1631.19 -351.102C1637.78 -350.81 1645.28 -349.885 1648.62 -343.03C1657.3 -325.236 1633.53 -292.7 1625.53 -279.07C1603.42 -241.402 1578.57 -205.578 1555.4 -168.637C1537 -139.304 1513.68 -106.712 1506.57 -71.9414C1497.93 -29.7471 1554.35 0.275813 1574.2 29.9855C1608.6 81.5042 1543.42 110.858 1511.29 135.422C1474.39 163.622 1443.94 215.07 1477.01 258.702C1489.67 275.386 1505.24 285.33 1510.89 307.103C1519.72 341.155 1513.04 380.068 1505.87 413.728C1495.07 464.328 1477.97 514.381 1454.73 560.113C1438.08 592.855 1410.46 644.195 1370.01 640.345C1342.78 637.775 1315.1 628.387 1288.58 620.087C1248.88 607.667 1209.68 593.509 1170.69 578.804C1080.68 544.952 991.665 507.626 904.398 466.57C844.854 438.548 678.76 324.029 666.262 319.944C628.999 307.772 586.631 309.915 548.213 311.801C497.109 314.306 446.261 320.798 395.453 326.812C371.269 329.659 346.962 333.14 322.649 334.542C305.344 335.539 282.617 336.393 267.459 325.78C237.873 305.075 270.835 257.698 284.467 237.655C326.227 176.207 379.053 122.994 428.585 68.5854C452.891 41.8723 477.569 15.2018 499.634 -13.6537C508.533 -25.3056 530.841 -48.7018 521.084 -64.6599Z" stroke="#EA4E4B"/>
<path fill-rule="evenodd" clip-rule="evenodd" d="M542.923 -77.911C499.813 -129.615 440.311 -168.069 388.958 -211.251C363.183 -232.93 337.246 -255.201 315.016 -281.025C303.452 -294.453 289.012 -311.433 286.784 -330.151C280.83 -380.225 370.237 -373.454 396.998 -375.355C448.736 -379.043 507.184 -381.841 554.123 -407.394C582.8 -423.015 596.923 -448.653 591.563 -482.351C589.187 -497.303 585.487 -510.005 591.563 -524.686C597.72 -539.559 610.546 -550.053 623.535 -557.921C660.86 -580.548 707.245 -587.781 749.269 -593.171C798.567 -599.449 848.236 -601.9 897.875 -600.504C941.35 -599.301 984.616 -612.836 1027.07 -621.757C1083.3 -633.569 1140.55 -643.885 1198.1 -642.326C1243.54 -641.087 1289.35 -631.354 1328.2 -605.488C1367.68 -579.145 1391.41 -539.716 1412.81 -497.168C1445.16 -432.847 1485.48 -346.655 1556.45 -322.227C1566.77 -318.667 1576.39 -318.275 1587.04 -317.656C1592.21 -317.357 1598.89 -317.264 1601.45 -311.576C1607.62 -297.877 1584.81 -271.32 1578.44 -262.065C1558.12 -232.517 1536.1 -204.302 1515.27 -175.146C1495.83 -147.927 1474.65 -119.562 1462.57 -87.6651C1443.35 -36.8653 1504.8 -7.16151 1503.08 41.246C1502.01 71.2987 1474.73 92.8504 1453.12 107.759C1426.52 126.093 1388.23 138.147 1374.91 171.602C1365 196.522 1380.56 211.025 1392.54 229.935C1412.85 261.974 1414.23 305.405 1412.12 342.492C1409.27 392.608 1398.14 443.465 1379.19 489.53C1370.6 510.412 1360.08 532.135 1344.6 548.354C1330.09 563.555 1316.36 567.449 1296.97 564.338C1237.62 554.797 1177.69 528.205 1120.77 504.453C1049.26 474.607 978.736 441.657 910.316 404.584C863.661 379.301 815.954 352.552 775.003 317.622C764.33 308.516 753.4 298.62 745.596 286.609C739.696 277.581 737.192 270.126 727.248 264.972C697.774 249.7 656.776 253.694 625.196 255.281C574.699 257.809 524.446 264.537 474.261 270.596C444.976 274.156 389.808 285.356 366.423 258.493C346.238 235.296 370.595 195.746 383.037 175.312C414.509 123.636 454.994 78.2832 492.556 31.5844C509.77 10.1823 527.66 -11.3835 541.877 -35.1779C545.509 -41.244 551.328 -49.2822 552.327 -56.6512C553.448 -65.0953 548.216 -71.5388 542.923 -77.911Z" stroke="#EA4E4B"/>
<path fill-rule="evenodd" clip-rule="evenodd" d="M546.63 -65.8747C506.794 -111.591 458.802 -149.148 416.036 -191.928C396.86 -211.109 377.496 -231.231 362.885 -254.631C355.026 -267.214 346.681 -283.053 348.848 -298.693C355.067 -343.583 428.601 -339.528 458.309 -342.158C502.452 -346.02 553.165 -349.91 592.198 -374.115C617.767 -389.968 627.354 -413.382 622.581 -443.579C617.456 -475.97 628.914 -499.484 654.99 -517.554C687.682 -540.191 728.949 -549.418 766.908 -555.973C812.641 -563.833 858.953 -567.317 905.28 -566.383C950.335 -565.471 993.985 -573.437 1038.74 -578.617C1098.09 -585.479 1159.33 -588.863 1218 -574.798C1269.09 -562.55 1315.23 -535.559 1349.82 -493.819C1385.95 -450.255 1403.83 -395.369 1433.17 -347.174C1451.47 -317.112 1476.98 -277.346 1511.18 -265.661C1522.58 -261.763 1543.36 -267.022 1534.25 -247.847C1529.05 -236.882 1519.3 -227.262 1511.61 -218.299C1499.17 -203.813 1486.32 -189.726 1473.68 -175.44C1446.72 -144.987 1417.86 -113.885 1397.66 -77.8239C1372.2 -32.4216 1410.04 2.52081 1405.43 48.5573C1402.95 73.3319 1386.62 93.1045 1369.35 108.638C1358.18 118.699 1345.95 127.413 1333.47 135.543C1320.43 144.036 1305 150.506 1293.63 161.486C1277.43 177.112 1284.46 195.609 1287.5 215.809C1292.85 251.309 1294.02 287.369 1291 323.173C1287.3 367.057 1278.62 412.196 1260.35 452.076C1253.24 467.602 1244.23 484.062 1230.85 494.472C1217.48 504.882 1203.64 504.169 1188.32 501.034C1142.86 491.771 1097.49 470.217 1054.37 449.789C1000.39 424.216 947.479 395.637 896.948 363.124C862.068 340.68 827.073 316.432 797.892 286C789.405 277.144 781.33 267.66 774.801 257.072C770.318 249.811 767.914 240.441 761.419 234.983C741.096 217.947 700.294 223.034 676.46 224.025C628.894 225.998 582.077 235.382 534.571 237.662C508.644 238.909 468.038 242.044 448.998 218.752C431.092 196.856 447.31 162.369 458.012 141.271C479.044 99.7881 507.3 62.8293 532.626 24.2672C543.038 8.39921 554.448 -8.2027 561.193 -26.3223C567.189 -42.4682 556.838 -54.1536 546.63 -65.8747Z" stroke="#EA4E4B"/>
<path fill-rule="evenodd" clip-rule="evenodd" d="M556.427 -65.1268C524.719 -105.355 486.494 -141.066 454.557 -181.949C435.863 -205.891 403.669 -246.141 418.126 -279.895C433.987 -316.986 489.274 -317.996 521.232 -320.985C559.268 -324.542 603.935 -329.402 636.487 -352.561C646.782 -359.883 655.552 -369.574 659.269 -382.338C663.25 -395.999 658.898 -407.952 658.332 -421.627C657.144 -450.315 673.376 -473.347 694.857 -489.164C725.215 -511.526 763.177 -522.099 799.034 -529.471C839.658 -537.785 880.957 -541.883 922.338 -541.708C961.885 -541.566 1001.01 -542.491 1040.6 -543.558C1092.37 -544.981 1144.87 -542.683 1195.09 -528.176C1244.57 -513.874 1289.54 -487.072 1324.87 -447.647C1359.34 -409.176 1382.6 -362.153 1402.96 -314.254C1414.52 -287.067 1434.04 -246.44 1461.61 -232.708C1473.87 -226.596 1485.9 -227.016 1472.86 -211.121C1456.45 -191.106 1434.33 -175.048 1415.32 -157.929C1387.89 -133.225 1359.78 -108.038 1336.76 -78.6668C1322.06 -59.9115 1315.51 -41.7111 1316.52 -17.4274C1317.31 1.07182 1320.85 19.3789 1319.06 37.9493C1314.86 81.5362 1282.32 111.427 1253.55 139.261C1235.05 157.162 1218.15 170.816 1208.62 196.281C1197.35 226.378 1192.63 259.121 1185.1 290.371C1176.83 324.687 1167.27 360.383 1149.22 390.608C1133.15 417.517 1113.6 429.584 1084.35 422.334C1038.73 411.035 993.755 383.201 953.25 357.451C912.023 331.254 871.504 301.797 837.34 265.788C818.896 246.343 806.307 223.51 789.927 202.62C769.323 176.394 722.712 186.327 695.012 188.547C649.028 192.232 504.339 219.81 517.69 130.488C523.262 93.2049 545.208 58.7964 561.258 25.8963C567.91 12.2425 577.537 -4.1435 579.041 -19.7895C580.681 -36.8301 565.96 -53.0169 556.427 -65.1268Z" stroke="#EA4E4B"/>
<path fill-rule="evenodd" clip-rule="evenodd" d="M573.169 -61.7108C548.938 -98.1661 519.94 -132.607 499.148 -171.981C485.661 -197.48 472.416 -231.551 489.815 -258.531C509.453 -288.978 552.755 -296.075 584.573 -299.955C617.354 -303.949 656.489 -307.309 683.282 -330.395C691.806 -337.749 698.833 -347.665 700.142 -359.539C701.403 -370.929 697.842 -382.319 699.022 -393.916C701.666 -419.956 716.63 -441.412 735.924 -456.974C792.998 -503.011 877.943 -513.248 946.804 -514.451C981.272 -515.049 1016.74 -511.91 1051.43 -509.66C1096.45 -506.741 1141.53 -500.477 1184.46 -485.378C1275.74 -453.286 1336.92 -382.113 1379.65 -293.548C1393.1 -265.671 1403.39 -235.509 1424.46 -213.106C1435.33 -201.538 1432.95 -193.23 1421.85 -182.68C1404.48 -166.193 1383.3 -153.593 1364.03 -139.832C1336.61 -120.263 1308.61 -100.401 1284.37 -76.9592C1267.66 -60.7996 1255.79 -45.2308 1252.19 -20.9985C1249.62 -3.72123 1250.22 13.8835 1248.68 31.2676C1245.74 64.2916 1235.67 97.0664 1217.85 124.459C1203.68 146.172 1186.82 165.905 1169.4 184.72C1146.75 209.216 1127.59 234.103 1110.38 263.176C1087.58 301.66 1055.53 372.649 1001.81 353.862C942.556 333.132 887.02 280.46 849.005 229.426C836.239 212.291 825.759 191.276 808.542 178.641C782.767 159.754 756.615 160.416 725.957 160.495C680.058 160.602 580.182 171.116 579.103 98.5614C578.678 69.8158 590.467 42.6363 596.111 14.9869C602.477 -15.9798 589.718 -36.8663 573.169 -61.7108Z" stroke="#EA4E4B"/>
<path fill-rule="evenodd" clip-rule="evenodd" d="M591.216 -58.4603C567.249 -105.973 513.504 -184.047 554.381 -236.882C575.973 -264.803 614.165 -275.296 646.202 -281.549C671.984 -286.607 703.077 -288.506 722.557 -309.947C736.876 -325.712 730.52 -348.654 736.005 -368.387C742.814 -392.852 758.441 -412.87 777.645 -427.916C831.308 -469.965 905.923 -482.87 970.477 -485.616C1037.52 -488.461 1111.39 -475.151 1174.48 -449.549C1253.15 -417.615 1312.08 -357.147 1353.29 -280.575C1360.9 -266.439 1367.81 -251.934 1375.11 -237.629C1380.01 -228.032 1387.29 -218.748 1391.15 -208.654C1397.59 -191.823 1390.01 -178.065 1377.85 -167.095C1360.36 -151.303 1338.87 -140.063 1318.93 -128.211C1291.67 -111.992 1263.79 -96.0639 1238.43 -77.0345C1221.38 -64.2296 1203.54 -50.4359 1197.44 -28.2195C1193.28 -13.0671 1192.42 2.98161 1192.57 18.6747C1192.89 52.3229 1191.22 79.5332 1176.33 110.35C1151.84 160.944 1114.17 206.436 1074.38 244.289C1043.15 273.996 993.742 320.143 948.243 300.282C907.421 282.497 883.541 239.928 856.645 205.512C843.568 188.78 828.879 173.499 811.619 161.598C789.858 146.595 769.372 140.299 743.59 137.845C700.196 133.712 634.765 132.638 621.351 77.7192C616.398 57.452 619.225 36.4592 616.627 15.9287C613.233 -11.2175 603.308 -34.4939 591.216 -58.4603Z" stroke="#EA4E4B"/>
<path fill-rule="evenodd" clip-rule="evenodd" d="M616.138 -56.7011C599.071 -108.69 576.65 -174.209 617.871 -220.415C637.838 -242.799 665.923 -255.312 693.104 -264.662C712.572 -271.364 743.483 -273.337 755.418 -293.94C764.184 -309.102 765.398 -330.018 773.328 -346.263C784.225 -368.597 800.732 -386.992 820.099 -401.392C870.551 -438.916 936.263 -453.416 996.19 -457.568C1126.4 -466.577 1258.89 -394.826 1328.57 -276.776C1349.34 -241.588 1376.16 -204.135 1342.59 -168.184C1305.93 -128.965 1250.71 -110.591 1206.96 -82.7239C1190.24 -72.0841 1168.94 -59.2935 1159.62 -40.0292C1154.01 -28.4493 1153.62 -13.9211 1153.37 -1.17318C1152.69 31.2947 1150.14 60.4937 1137.76 90.7895C1118.65 137.608 1088.18 180.801 1053.65 216.181C1023.53 247.033 980.586 283.289 936.85 261.048C903.316 243.956 882.048 207.678 855.993 180.936C826.997 151.153 791.137 131.084 751.757 121.278C713.449 111.763 671.432 105.346 651.243 64.9235C644.318 51.0575 637.082 33.1036 634.486 17.7563C630.295 -7.54799 624.159 -32.4495 616.138 -56.7011Z" stroke="#EA4E4B"/>
<path fill-rule="evenodd" clip-rule="evenodd" d="M643.926 -56.3349C636.031 -108.832 635.153 -163.572 671.838 -204.948C688.959 -224.251 710.601 -237.964 732.486 -250.389C748.588 -259.531 765.216 -267.243 777.241 -282.231C788.383 -296.108 796.852 -312.221 807.609 -326.461C821.799 -345.333 838.777 -361.67 857.892 -374.843C905.806 -407.803 964.092 -423.218 1019.85 -428.565C1046.85 -431.164 1076.13 -432.517 1102.94 -425.432C1128.83 -418.597 1154.44 -407.788 1178.25 -395.186C1228.86 -368.421 1272.72 -329.224 1304.52 -279.667C1326.33 -245.676 1338.12 -212.623 1309.88 -178.14C1278.05 -139.271 1228.14 -117.825 1187 -92.5981C1158.78 -75.296 1127.16 -58.3357 1121.89 -21.5669C1117.69 7.69005 1114.28 35.4588 1103.43 63.1137C1087.27 103.905 1063.51 140.856 1033.55 171.775C1006.16 199.943 971.508 223.845 932.327 208.8C901.284 196.86 877.199 170.109 850.077 150.984C819.851 129.624 786.642 117.847 751.672 108.377C720.244 99.8327 690.652 86.703 670.34 58.8274C666.183 53.1312 661.816 46.9295 658.611 40.5569C654.521 32.4256 654.839 24.3656 654.036 15.2517C651.944 -8.80036 647.496 -32.5748 643.926 -56.3349Z" stroke="#EA4E4B"/>
<path fill-rule="evenodd" clip-rule="evenodd" d="M674.566 -60.6258C675.24 -110.49 686.606 -157.617 717.736 -196.477C731.044 -213.101 746.936 -226.794 761.58 -242.027C773.371 -254.308 784.514 -265.718 798.072 -275.838C830.233 -299.801 856.371 -330.809 890.55 -352.147C936.175 -380.674 988.437 -396.442 1040.29 -402.746C1065.62 -405.827 1091.77 -406.904 1117.39 -403.424C1139.4 -400.436 1160.47 -389.945 1180.02 -379.212C1218.33 -358.188 1255.53 -328.306 1280.41 -290.501C1335.25 -207.153 1227.12 -146.555 1171.62 -111.068C1146.09 -94.7437 1107.09 -75.8376 1096.64 -43.5026C1089.16 -20.4031 1084.61 3.08857 1074.99 25.4749C1049.13 85.5949 996.646 156.305 926.704 146.892C896.776 142.869 869.498 126.531 841.559 115.562C812.79 104.266 783.097 97.9683 753.196 91.0577C725.25 84.6036 702.977 75.418 684.927 50.7923C676.299 39.0322 677.062 24.9543 676.293 10.5269C675.038 -13.1716 674.262 -37.0057 674.566 -60.6258Z" stroke="#EA4E4B"/>
<path fill-rule="evenodd" clip-rule="evenodd" d="M702.466 -67.0127C713.702 -142.279 755.434 -224.448 816.797 -268.159C888.977 -319.577 967.174 -362.875 1053.41 -375.322C1093.4 -381.094 1137.2 -383.933 1174.92 -365.06C1203.64 -350.706 1236.99 -329.249 1252.79 -299.074C1291.45 -225.267 1205.46 -166.511 1156.47 -132.365C1130.09 -113.983 1096.52 -96.0702 1076.64 -69.226C1065.1 -53.6618 1059.21 -33.0732 1049.9 -15.9789C1021.68 35.8235 975.23 77.6056 917.366 85.0781C890.611 88.5297 863.661 84.2597 837.109 80.8651C809.929 77.3921 782.412 75.5062 755.4 70.6597C733.839 66.7882 708.428 60.2338 700.487 35.8875C690.473 5.20747 697.88 -36.2757 702.466 -67.0127Z" stroke="#EA4E4B"/>
<path fill-rule="evenodd" clip-rule="evenodd" d="M729.824 -79.1037C746.212 -149.867 780.914 -218.892 839.252 -261.136C870.188 -283.536 906.101 -298.999 940.58 -314.277C979.663 -331.592 1020.5 -345.033 1062.2 -351.699C1114.13 -360.004 1198.23 -367.49 1225.36 -305.061C1252.29 -243.094 1184.25 -188.25 1144.01 -156.996C1118.21 -136.975 1090.6 -118.598 1065.95 -96.7107C1052.58 -84.8445 1042.29 -71.1335 1030.98 -57.2159C999.715 -18.6542 955.149 11.8732 909.725 28.1697C865.699 43.9676 811.236 50.962 764.763 45.7411C744.711 43.4975 730.379 35.9262 724.314 14.4017C715.911 -15.5203 723.05 -49.8725 729.824 -79.1037Z" stroke="#EA4E4B"/>
<path fill-rule="evenodd" clip-rule="evenodd" d="M757.01 -98.1626C773.29 -160.467 808.404 -217.373 859.624 -254.767C917.038 -296.686 990.969 -319.979 1058.92 -331.824C1095.04 -338.116 1173.31 -355.174 1191.72 -306.354C1210.13 -257.533 1156.91 -209.422 1126.28 -182.937C1089.1 -150.842 1049.02 -119.853 1008.98 -91.0555C974.197 -66.0175 937.08 -40.4192 899.403 -21.0839C878.154 -10.1152 856.018 -1.15928 833.259 5.6776C816.406 10.6994 794.976 18.1895 777.307 14.4515C732.741 5.01086 749.224 -68.3724 757.01 -98.1626Z" stroke="#EA4E4B"/>
<path fill-rule="evenodd" clip-rule="evenodd" d="M-171.646 6.22928C-172.502 -49.3592 -200.496 -107.131 -186.671 -163.773C-175.318 -210.292 -118.163 -214.176 -83.8753 -235.252C-56.6284 -251.996 -41.1656 -281.657 -26.4305 -310.117C-13.1911 -335.667 -1.29925 -361.985 12.6476 -387.115C21.676 -403.362 37.1792 -435.264 56.7587 -435.84C75.5027 -436.394 92.6903 -411.534 103.578 -396.839C117.774 -377.683 130.36 -357.262 144.145 -337.801C167.377 -304.974 195.25 -280.676 227.166 -257.679C263.486 -231.513 300.406 -206.24 337.925 -181.861C365.55 -163.858 393.362 -145.99 419.915 -126.209C436.571 -113.796 473.331 -90.5082 473.5 -67.6256C473.58 -56.707 463.777 -44.6148 457.168 -35.8871C445.983 -21.1133 433.236 -7.60565 420.448 5.6104C396.63 30.2287 371.802 53.7302 347.244 77.5162C315.368 108.387 284.921 138.753 256.899 173.799C227.927 210.075 200.249 247.547 172.005 284.506C152.877 309.544 133.769 337.662 106.179 353.026C71.6218 372.231 43.2565 351.98 8.30856 351.746C-21.7546 351.539 -19.5379 278.019 -23.3582 257.576C-27.1918 236.884 -35.6408 217.622 -38.9153 196.88C-42.9983 170.989 -43.0522 144.5 -44.0561 118.331C-45.2756 86.3222 -45.7607 55.8499 -78.1753 43.6439C-96.6228 36.7087 -116.58 35.2505 -135.674 31.0965C-148.044 28.4006 -171.376 23.7914 -171.646 6.22928Z" stroke="#EA4E4B"/>
<path fill-rule="evenodd" clip-rule="evenodd" d="M-156.866 -3.65931C-160.018 -50.2562 -178.635 -109.897 -161.03 -157.997C-145.989 -199.101 -98.95 -204.43 -67.2758 -226.022C-41.128 -243.832 -29.488 -272.975 -16.4175 -301.606C-5.93141 -324.573 4.23755 -347.761 16.1407 -369.994C24.9128 -386.379 38.3073 -414.041 56.5466 -417.432C72.9438 -420.481 90.5286 -396.06 99.7326 -383.636C113.161 -365.499 124.645 -345.802 136.508 -326.518C157.352 -292.644 178.695 -262.182 209.202 -237.299C239.844 -212.309 273.367 -193.623 307.248 -174.175C333.753 -158.958 360.124 -143.3 385.307 -125.733C404.066 -112.654 431.037 -95.9127 439.62 -72.5893C446.415 -54.1386 411.954 -23.5205 401.792 -12.7137C380.873 9.5055 358.707 30.364 336.5 51.0943C309.428 76.3553 281.492 98.4463 257.584 127.262C214.823 178.782 179.08 242.939 124.058 281.229C90.8727 304.324 53.9419 310.23 17.0314 306.775C2.41564 305.407 -1.09321 283.63 -2.93536 270.928C-5.99887 249.827 -6.38351 228.363 -8.73849 207.177C-10.945 187.344 -15.8439 168.502 -19.7914 149.054C-23.7861 129.349 -24.9063 109.161 -27.8483 89.3207C-29.6702 77.0036 -31.4719 62.6705 -39.441 52.7684C-47.6869 42.5173 -61.2905 38.2216 -73.1801 34.9588C-95.5086 28.8894 -154.64 29.2242 -156.866 -3.65931Z" stroke="#EA4E4B"/>
<path fill-rule="evenodd" clip-rule="evenodd" d="M-137.844 -23.1656C-143.144 -65.938 -150.564 -119.211 -128.973 -158.619C-111.326 -190.84 -73.6879 -197.791 -46.8047 -218.786C-24.4448 -236.245 -15.9991 -264.013 -4.90018 -289.817C4.20716 -310.983 13.3618 -332.241 24.3999 -352.382C32.7714 -367.657 43.5598 -388.368 60.1812 -393.696C74.3924 -398.25 90.4467 -377.852 98.3253 -367.7C111.74 -350.397 122.677 -331.01 133.539 -311.879C151.309 -280.576 167.66 -247.137 192.95 -221.675C217.524 -196.966 246.716 -182.381 276.455 -165.982C299.234 -153.418 321.87 -140.37 343.332 -125.387C359.812 -113.89 380.234 -100.265 388.822 -81.1346C396.248 -64.636 377.183 -45.1067 367.657 -33.4674C351.927 -14.2582 334.468 3.36442 317.253 21.0582C298.673 40.1464 278.096 57.7549 260.117 77.3126C222.311 118.47 192.106 164.038 145.509 195.57C115.332 215.996 74.7232 234.55 39.05 231.214C13.3955 228.809 15.0833 168.891 12.6191 149.745C8.56843 118.442 0.743798 85.5512 -11.6851 56.7161C-22.3587 32.0075 -47.7229 24.3878 -71.055 18.8456C-85.6713 15.3666 -100.99 13.4884 -115.127 8.10982C-131.492 1.87751 -135.623 -5.23699 -137.844 -23.1656Z" stroke="#EA4E4B"/>
<path fill-rule="evenodd" clip-rule="evenodd" d="M-120.101 -43.2144C-123.256 -79.3763 -122.547 -122.138 -102.107 -153.42C-84.1947 -180.82 -52.3021 -188.033 -29.6192 -209.618C-11.9161 -226.457 -4.96323 -253.914 4.55725 -276.183C16.1926 -303.412 32.4971 -353.702 61.8491 -363.948C89.1537 -373.474 117.708 -312.624 127.594 -294.478C143.243 -265.759 156.331 -234.263 175.311 -207.741C191.656 -184.908 213.555 -172.286 236.799 -158.721C266.435 -141.397 311.429 -120.854 327.274 -87.0896C339.085 -61.9304 300.679 -24.5269 287.563 -7.09524C273.847 11.1142 263.516 32.6986 249.36 50.2658C227.022 77.9867 190.825 100.306 160.939 117.338C131.884 133.906 94.1538 152.244 61.1936 151.152C39.531 150.439 35.4093 115.133 30.7876 97.8871C24.1658 73.3701 15.3616 51.4003 -3.55103 34.725C-22.8014 17.75 -45.4911 9.75129 -69.343 2.75152C-81.5865 -0.816157 -95.553 -3.59893 -106.506 -10.8056C-118.608 -18.6474 -118.885 -29.3147 -120.101 -43.2144Z" stroke="#EA4E4B"/>
<path fill-rule="evenodd" clip-rule="evenodd" d="M-98.4819 -64.058C-98.3068 -95.2992 -91.5381 -128.614 -71.4678 -152.712C-54.7515 -172.785 -28.5861 -179.494 -12.5837 -200.014C0.0915565 -216.26 6.54369 -239.066 15.0298 -257.931C25.4084 -281.05 40.084 -321.436 65.8925 -329.459C91.0814 -337.27 113.361 -292.786 123.019 -275.185C137.162 -249.375 148.612 -222.018 162.883 -196.279C174.063 -176.086 187.735 -163.071 205.94 -150.057C227.31 -134.77 257.126 -117.836 268.542 -92.5443C276.772 -74.2327 256.85 -44.9725 249.617 -28.8406C244.767 -18.0056 240.329 -7.00014 237.891 4.74372C235.992 13.8889 235.803 22.3524 230.301 30.2053C216.447 49.9583 186.072 52.5357 165.463 59.0467C138.092 67.6877 109.05 77.5074 80.4064 79.3819C62.8011 80.5534 53.8167 63.4347 43.768 51.3926C31.8942 37.1565 15.0837 26.9179 0.401367 16.1752C-18.9752 1.97463 -40.0625 -6.85815 -61.8772 -15.9039C-71.717 -19.9866 -83.2742 -23.9911 -90.8983 -32.1068C-98.859 -40.5206 -98.5425 -52.7828 -98.4819 -64.058Z" stroke="#EA4E4B"/>
<path fill-rule="evenodd" clip-rule="evenodd" d="M-75.7756 -82.6045C-72.2968 -108.843 -61.4558 -133.921 -43.1449 -152.469C-29.1084 -166.71 -10.4671 -174.727 0.798553 -191.838C11.2956 -207.787 18.6106 -225.923 27.2806 -242.976C36.4563 -261.004 50.0883 -291.138 71.2511 -296.044C94.0588 -301.327 111.628 -270.93 121.357 -254.083C133.647 -232.794 142.985 -209.888 153.974 -187.864C162.253 -171.45 172.813 -156.437 185.303 -143.327C198.403 -129.506 216.168 -116.269 222.795 -97.2653C228.653 -80.4328 217.691 -60.0687 215.756 -43.0013C213.687 -24.7661 217.314 -5.61242 205.839 10.0452C182.175 42.3359 122.786 36.3477 88.8339 37.0383C55.3335 37.7504 28.3998 17.9915 1.29071 -0.806197C-16.6157 -13.2169 -35.2637 -23.7265 -53.6218 -35.29C-72.3372 -47.0883 -78.8364 -59.5133 -75.7756 -82.6045Z" stroke="#EA4E4B"/>
<path fill-rule="evenodd" clip-rule="evenodd" d="M-54.6792 -97.6225C-44.3916 -135.634 -12.2607 -155.838 10.7093 -184.564C29.5035 -208.081 43.5958 -256.782 75.2478 -263.224C111.183 -270.536 132.696 -206.007 145.19 -181.108C159.053 -153.493 183.743 -131.031 194.01 -101.798C199.407 -86.4555 194.772 -72.1387 191.899 -56.8028C188.748 -39.9633 186.381 -22.746 175.506 -9.19172C154.101 17.4822 112.297 17.2969 82.1894 18.0309C51.0231 18.7934 23.4524 0.514332 -1.37946 -17.7291C-27.7156 -37.0486 -65.2164 -58.6414 -54.6792 -97.6225Z" stroke="#EA4E4B"/>
<path fill-rule="evenodd" clip-rule="evenodd" d="M-37.4486 -107.93C-25.8564 -135.012 -1.49654 -157.029 18.27 -177.814C34.7681 -195.142 52.5165 -230.023 77.6714 -232.51C107.236 -235.443 125.154 -198.195 136.787 -175.356C148.237 -152.914 164.735 -129.217 171.075 -104.586C177.686 -78.9278 160.08 -44.3718 143.29 -26.2154C124.563 -5.9692 93.9249 1.51152 67.6353 0.703943C40.1089 -0.117807 14.8521 -16.8503 -5.99478 -34.2063C-28.2822 -52.7594 -50.9297 -76.4909 -37.4486 -107.93Z" stroke="#EA4E4B"/>
<path fill-rule="evenodd" clip-rule="evenodd" d="M1190.43 878.746C1135.48 913.925 1073.36 942.964 1014.78 972.479C929.169 1015.61 842.3 1057.57 752.348 1089.7C704.121 1106.92 641.628 1131.75 589.881 1118.25C570.961 1113.32 553.707 1098.41 536.743 1088.72C513.352 1075.36 489.616 1062.65 465.921 1049.92C418.388 1024.41 370.708 999.148 323.992 971.995C301.497 958.917 279.67 942.444 256.251 931.287C242.566 924.762 226.189 927.815 211.565 928.228C177.692 929.188 143.839 931.01 109.985 932.561C68.5776 934.454 27.0754 936.467 -14.3795 935.72C-33.0767 935.379 -78.8687 938.88 -89.1616 921.888C-94.6993 912.737 -81.6477 896.236 -75.5974 888.601C-64.4884 874.57 -51.7199 861.925 -39.1202 849.409C-9.98171 820.463 20.9644 792.898 46.8654 760.565C60.1733 743.943 77.6092 723.635 68.9216 700.944C60.1531 678.025 44.9632 658.179 35.6956 635.339C25.0249 609.054 20.6002 581.702 15.5616 553.83C11.8316 533.231 3.14406 514.98 -5.02417 495.988C-14.049 474.998 -23.3977 453.829 -29.6638 431.692C-33.8053 417.07 -40.4895 390.764 -26.0012 381.507C-5.41539 368.343 33.1864 379.002 56.6523 382.88C89.0824 388.231 121.276 395.048 153.619 400.918C177.098 405.187 200.659 409.869 224.529 410.367C263.01 411.171 301.618 408.389 339.998 405.799C411.063 401.003 481.619 394.5 552.925 394.5C615.396 394.5 759.761 470.757 793.554 484.184C861.004 510.988 930.248 536.397 994.076 572.06C1011.34 581.716 1037.92 594.581 1047 614.455C1052.61 626.7 1050.03 633.78 1063.25 641.672C1081.29 652.437 1104.4 656.664 1124.36 661.481C1156.52 669.237 1188.92 675.805 1221.22 682.828C1286.55 696.995 1351.44 713.019 1416.5 728.438C1436.17 733.099 1459.97 734.131 1478.72 742.342C1490.81 747.614 1489.55 754.253 1480.2 762.265C1463.79 776.326 1440.79 784.131 1421.4 792.151C1393 803.898 1364.13 814.379 1335.25 824.711C1306.36 835.043 1277.33 845.054 1248.44 855.407C1229.35 862.224 1207.58 867.767 1190.43 878.746Z" stroke="#EA4E4B"/>
<path fill-rule="evenodd" clip-rule="evenodd" d="M1145.21 871.008C1087.08 906.259 1022.56 934.341 960.357 961.74C880.749 996.826 799.339 1029.71 715.46 1051.64C666.211 1064.51 608.103 1078.72 557.781 1063.96C539.829 1058.7 526.417 1046.86 511.028 1036.42C493.487 1024.5 475.272 1013.57 457.056 1002.82C419.559 980.687 381.667 959.31 343.378 938.688C323.098 927.722 300.774 913.035 277.863 909.23C259.648 906.202 238.956 910.584 220.66 911.86C187.71 914.154 154.767 916.52 121.804 918.529C83.7669 920.845 45.6224 922.983 7.50476 922.612C-13.7399 922.406 -50.2114 925.819 -65.2358 911.332C-78.3442 898.691 -30.6197 852.973 -22.2271 844.287C3.98302 817.166 31.5492 791.343 55.9445 762.341C70.3617 745.24 87.916 724.44 93.9946 701.773C99.1692 682.455 89.1844 660.444 83.288 642.587C75.9141 620.219 69.9637 597.032 61.3956 575.135C53.7654 555.625 41.6216 538.245 30.9554 520.51C19.2233 500.999 7.34277 481.169 -1.36694 459.884C-6.7034 446.787 -15.5345 424.854 -4.92908 412.37C7.32253 397.976 45.0894 407.382 60.613 409.434C92.1056 413.653 123.355 419.923 154.632 425.538C206.58 434.859 256.106 443.011 309.005 441.058C377.893 438.507 446.714 432.507 515.589 429.187C541.023 427.947 566.862 425.453 592.317 426.8C606.909 427.576 618.021 432.279 626.508 442.889C638.098 457.369 664.794 465.385 683.36 473.694C712.309 486.641 741.623 498.684 770.855 510.883C835.028 537.675 900.435 563.499 961.295 598.151C980.549 609.11 1002.6 621.331 1016.84 639.437C1024.79 649.534 1022.78 659.261 1027.63 669.992C1034.06 684.108 1055.17 690.479 1067.79 695.096C1092.16 704.017 1117.52 709.996 1142.68 715.597C1199.62 728.266 1256.7 736.596 1314.56 742.731C1328.12 744.157 1381.52 749.095 1353.47 772.894C1322.49 799.195 1277.75 812.086 1241.27 826.907C1208.41 840.232 1175.52 852.631 1145.21 871.008Z" stroke="#EA4E4B"/>
<path fill-rule="evenodd" clip-rule="evenodd" d="M1064.88 864.489C1010.24 895.501 949.714 918.638 890.869 940.771C819.462 967.628 746.265 991.569 671.372 1004.98C624.326 1013.4 572.457 1019.86 525.728 1005.88C493.817 996.328 469.132 970.517 441.104 952.759C413.076 935.001 383.913 918.332 353.879 904.437C335.239 895.814 315.187 887.128 294.446 888.266C244.016 891.026 193.647 897.607 143.162 900.802C109.765 902.936 76.3004 904.693 42.8019 904.167C22.6014 903.854 -5.14978 905.134 -23.0337 893.922C-42.8019 881.521 62.4552 775.643 72.4034 763.726C97.345 733.845 127.548 694.189 122.726 651.694C118.113 611.07 98.1217 580.741 75.5101 548.91C62.678 530.804 21.5275 482.432 36.7775 458.883C45.4898 445.423 74.2067 450.083 87.8492 451.001C114.736 452.808 141.474 456.692 168.219 460.064C207.215 464.952 247.285 472.501 286.45 474.713C313.721 476.25 341.155 474.194 368.474 474.151C407.646 474.094 446.817 474.407 485.989 474.777C518.88 475.09 552.047 474.777 584.823 478.107C605.199 480.156 620.665 484.759 635.281 497.764C647.998 509.076 667.185 515.7 683.394 522.893C710.166 534.767 737.289 545.773 764.324 556.957C820.927 580.378 878.179 603.308 932.357 632.577C957.089 645.931 998.672 664.628 1004.47 697.006C1006.57 708.681 1008.11 713.725 1018.91 720.363C1034.25 729.783 1052.62 734.03 1069.83 737.723C1109.95 746.331 1151.23 745.044 1191.28 753.553C1207.59 757.06 1228.88 764.63 1210.26 781.961C1188.53 802.23 1156.91 813.371 1130.88 825.893C1117.88 832.139 1104.5 837.988 1092.16 845.614C1082.68 851.491 1074.57 859.025 1064.88 864.489Z" stroke="#EA4E4B"/>
<path fill-rule="evenodd" clip-rule="evenodd" d="M961.394 854.807C910.915 879.995 856.094 898.309 802.257 914.818C742.46 933.132 681.219 948.301 619.169 954.755C576.324 959.226 530.673 960.545 489.089 946.86C462.791 938.202 444.962 919.996 422.332 904.727C388.179 881.65 351.227 863.364 310.195 867.814C264.194 872.792 218.042 876.527 171.739 879.018C143.81 880.523 115.772 881.65 87.8083 880.601C70.128 879.945 47.3499 878.84 31.969 870.389C11.3891 859.071 88.6917 772.951 98.3275 760.4C122.225 729.271 139.744 696.608 149.979 658.041C158.327 626.57 141.274 601.83 123.682 578.289C112.744 563.67 77.4038 526.9 88.4692 507.916C94.538 497.447 114.538 497.988 125.28 497.454C145.752 496.441 166.311 497.496 186.783 497.96C217.012 498.673 249.19 493.774 279.163 497.718C345.589 506.447 411.847 514.006 478.684 519.989C515.528 523.284 552.595 526.279 589.109 532.633C602.217 534.916 615.757 537.333 628.178 542.496C636.169 545.812 640.525 551.461 647.268 556.096C679.419 578.161 721.388 589.514 757.598 603.656C805.737 622.455 854.132 640.961 900.989 663.169C925.635 674.85 960.059 688.271 977.018 712.112C982.142 719.315 979.958 725.077 983.181 732.002C986.889 739.989 998.157 742.371 1005.43 744.596C1021.95 749.652 1091.07 757.297 1059.22 786.957C1044.02 801.085 1024.65 810.149 1007.52 821.253C1001.31 825.275 995.264 829.319 990.092 834.746C981.441 843.845 972.918 849.037 961.394 854.807Z" stroke="#EA4E4B"/>
<path fill-rule="evenodd" clip-rule="evenodd" d="M851.13 843.901C751.479 884.653 634.692 912.417 526.047 907.038C489.917 905.242 451.044 899.251 419.726 878.747C401.259 866.635 386.502 852.963 364.319 848.589C348.305 845.433 331.061 849.016 314.953 850.313C291.621 852.194 268.276 853.875 244.91 855.236C215.943 856.896 186.881 858.178 157.86 857.495C137.123 857.003 108.487 857.559 90.4733 845.803C68.9659 831.782 123.711 766.01 131.414 754.29C150.083 725.885 163.171 698.364 167.901 664.131C169.293 654.157 173.983 643.933 173.374 633.881C172.739 623.614 166.746 614.474 161.212 606.402C153.975 595.822 128.866 570.73 136.056 557.827C140.029 550.703 154.941 549.805 162.671 548.295C177.172 545.445 191.882 543.913 206.47 541.648C231.221 537.786 255.796 525.212 280.634 525.568C347.427 526.509 415.185 548.366 480.64 560.371C519.553 567.531 558.73 574.028 597.17 583.725C609.333 586.795 621.86 589.973 633.421 595.181C641.489 598.814 646.672 605.29 654.145 609.358C682.801 624.982 715.755 634.465 746.526 644.98C786.473 658.659 826.555 671.925 866.225 686.487C891.091 695.614 923.065 703.643 944.491 720.57C960.14 732.931 949.444 736.629 941.187 748.142C936.971 754.012 937.944 759.797 936.112 766.445C933.498 775.934 926.105 782.767 919.173 788.908C909.612 797.393 896.875 804.382 889.057 814.784C886.3 818.446 886.429 822.991 884.199 826.183C877.712 835.48 860.502 840.068 851.13 843.901Z" stroke="#EA4E4B"/>
<path fill-rule="evenodd" clip-rule="evenodd" d="M745.18 829.383C664.302 855.003 574.311 869.592 488.819 862.822C459.074 860.463 429.147 854.982 401.439 842.945C388.832 837.486 379.369 831.399 365.556 831.072C333.504 830.316 301.351 832.96 269.306 833.594C246.373 834.051 223.326 834.214 200.447 832.269C185.149 830.972 164.463 829.418 151.931 819.519C133.719 805.101 166.594 756.09 173.285 742.549C184.374 720.093 195.375 695.127 190.977 669.143C189.628 661.196 187.24 654.177 186.93 646.073C186.633 639.11 187.463 632.682 185.122 626.026C182.229 617.773 169.36 604.966 173.784 597.369C176.799 592.18 185.743 591.938 191.692 590.277C201.341 587.585 210.762 584.052 219.859 579.715C229.436 575.126 237.591 568.035 247.513 564.243C263.62 558.1 281.649 557.522 298.579 557.55C366.129 557.665 434.536 571.726 500.373 586.429C534.658 594.083 569.131 602.243 602.451 613.853C612.568 617.381 624.035 620.923 632.931 627.437C638.482 631.492 642.246 636.573 648.552 639.624C702.424 665.665 764.707 675.336 821.897 694.144C836.783 699.04 919.28 723.777 876.146 747.046C849.942 761.186 822.254 767.614 798.344 786.957C791.059 792.836 786.203 797.704 783.356 806.676C781.481 812.649 785.994 809.62 779.694 815.863C772.052 823.367 754.603 826.396 745.18 829.383Z" stroke="#EA4E4B"/>
<path fill-rule="evenodd" clip-rule="evenodd" d="M661.085 814.233C566.395 835.145 466.118 836.14 369.933 817.601C345.686 812.932 320.451 814.048 295.906 812.861C272.057 811.724 229.656 814.09 212.335 794.741C199.775 780.714 213.403 750.905 218.118 735.215C224.124 715.226 229.372 694.576 219.511 675.163C213.735 663.793 205.821 652.971 199.626 641.708C196.663 636.329 190.563 628.086 193.106 622.991C197.313 614.585 216.995 611.046 226.545 607.081C257.069 594.411 289.392 591.178 322.027 591.269C382.304 591.434 442.892 600.131 502.019 611.927C529.222 617.356 556.804 623.147 583.04 632.584C597.886 637.921 608.836 648.217 623.013 654.321C668.66 673.99 717.703 684.5 764.135 702.485C777.574 707.694 827.774 725.032 802.485 745.476C778.001 765.266 742.289 762.914 716.831 781.531C713.949 783.663 710.385 786.214 708.714 789.66C707.727 791.721 709.465 795.643 708.714 796.816C700.896 809.557 673.104 811.582 661.085 814.233Z" stroke="#EA4E4B"/>
<path fill-rule="evenodd" clip-rule="evenodd" d="M599.737 800.411C551.158 807.441 501.511 809.185 452.114 809.628C425.114 809.87 395.448 811.685 369.029 804.469C352.8 800.025 337.126 796.139 320.396 793.338C302.396 790.323 273.414 788.13 262.452 771.79C254.263 759.58 259.876 734.481 260.173 719.635C260.491 703.352 257.327 691.278 246.433 679.625C239.583 672.288 208.16 645.653 211.791 637.972C215.246 630.656 237.142 629.535 246.609 627.634C276.531 621.604 306.852 619.504 337.288 619.832C384.426 620.332 431.74 625.405 478.142 634.121C497.326 637.744 517.152 641.495 535.477 648.732C547.818 653.612 558.11 662.264 570.369 667.308C605.478 681.776 642.601 691.599 677.832 706.332C689.138 711.068 725.978 723.678 717.146 743.112C709.782 759.337 684.736 764.274 672.429 775.148C651.494 793.695 626.433 796.553 599.737 800.411Z" stroke="#EA4E4B"/>
<path fill-rule="evenodd" clip-rule="evenodd" d="M569.134 791.087C530.598 795.741 491.167 797.776 452.065 797.876C426.831 797.94 400.208 798.303 375.445 792.318C363.006 789.315 352.197 782.29 340.425 777.28C328.303 772.128 311.574 766.378 306.334 754.564C301.411 743.462 303.25 727.265 298.926 713.879C295.081 702.001 287.033 694.664 278.365 686.636C272.843 681.505 244.483 659.295 247.763 654.391C251.279 649.139 268.311 649.566 277.173 648.84C301.592 646.805 326.096 646.157 350.581 646.897C383.998 647.979 417.671 650.997 450.51 657.829C473.805 662.668 491.375 674.197 513.095 682.651C541.232 693.632 570.379 702.314 598.247 714.327C612.134 720.312 632.688 728.012 639.8 743.462C642.534 749.383 645.188 764.442 642.144 770.363C638.487 777.48 624.876 780.497 618.451 782.326C602.356 786.888 585.512 789.108 569.134 791.087Z" stroke="#EA4E4B"/>
</g>
</svg>
