<svg width="477" height="515" viewBox="0 0 477 515" fill="none" xmlns="http://www.w3.org/2000/svg">
<mask id="path-1-inside-1_4_4309" fill="white">
<path fill-rule="evenodd" clip-rule="evenodd" d="M16.9326 0.13623C7.75573 0.13623 0.316406 7.57557 0.316406 16.7524V345.08V411.111V453.92C79.3579 429.113 169.826 455.137 257.821 480.449C335.82 502.886 411.875 524.764 476.307 510.187L476.307 411.111L476.307 401.871V401.868L476.307 16.7524C476.307 7.57556 468.867 0.13623 459.69 0.13623H16.9326Z"/>
</mask>
<path d="M0.316406 453.92H-0.666014V455.258L0.610587 454.857L0.316406 453.92ZM257.821 480.449L257.549 481.393L257.821 480.449ZM476.307 510.187L476.523 511.145L477.289 510.972V510.187H476.307ZM476.307 411.111H477.289H476.307ZM476.307 401.871H475.324H476.307ZM476.307 401.868H475.324H476.307ZM476.307 16.7524H477.289H476.307ZM1.29883 16.7524C1.29883 8.11815 8.29831 1.11865 16.9326 1.11865V-0.84619C7.21316 -0.84619 -0.666014 7.033 -0.666014 16.7524H1.29883ZM1.29883 345.08V16.7524H-0.666014V345.08H1.29883ZM-0.666014 345.08V411.111H1.29883V345.08H-0.666014ZM-0.666014 411.111V453.92H1.29883V411.111H-0.666014ZM0.610587 454.857C39.9358 442.515 82.1483 442.804 125.564 449.361C168.986 455.919 213.539 468.734 257.549 481.393L258.093 479.505C214.108 466.853 169.429 453.999 125.858 447.418C82.2808 440.837 39.7385 440.518 0.0222257 452.982L0.610587 454.857ZM257.549 481.393C296.538 492.609 335.103 503.703 371.982 510.166C408.862 516.629 444.129 518.474 476.523 511.145L476.09 509.228C444.053 516.477 409.076 514.672 372.321 508.231C335.565 501.79 297.103 490.727 258.093 479.505L257.549 481.393ZM477.289 510.187L477.289 411.111H475.324L475.324 510.187H477.289ZM477.289 411.111L477.289 401.871H475.324L475.324 411.111H477.289ZM477.289 401.871V401.868H475.324V401.871H477.289ZM475.324 16.7524L475.324 401.868H477.289L477.289 16.7524H475.324ZM459.69 1.11865C468.325 1.11865 475.324 8.11813 475.324 16.7524H477.289C477.289 7.03298 469.41 -0.84619 459.69 -0.84619V1.11865ZM16.9326 1.11865H459.69V-0.84619H16.9326V1.11865Z" fill="#EA4E4B" mask="url(#path-1-inside-1_4_4309)"/>
</svg>
